<?xml version="1.0" encoding="UTF-8"?>
<!DOCTYPE svg PUBLIC "-//W3C//DTD SVG 1.1//EN" "http://www.w3.org/Graphics/SVG/1.1/DTD/svg11.dtd">
<svg xmlns="http://www.w3.org/2000/svg" version="1.1" width="1531px" height="926px" style="shape-rendering:geometricPrecision; text-rendering:geometricPrecision; image-rendering:optimizeQuality; fill-rule:evenodd; clip-rule:evenodd" xmlns:xlink="http://www.w3.org/1999/xlink">
<g><path style="opacity:0.107" fill="#fcfcfc" d="M 311.5,-0.5 C 381.833,-0.5 452.167,-0.5 522.5,-0.5C 810.334,0.166667 1098.33,0.833333 1386.5,1.5C 1393.4,2.17447 1398.74,5.34113 1402.5,11C 1403.45,11.4828 1404.45,11.6495 1405.5,11.5C 1405.5,13.5 1405.5,15.5 1405.5,17.5C 1406.83,17.5 1408.17,17.5 1409.5,17.5C 1409.5,20.5 1409.5,23.5 1409.5,26.5C 1410.5,26.5 1411.5,26.5 1412.5,26.5C 1413.82,304.499 1413.82,582.499 1412.5,860.5C 1411.5,860.5 1410.5,860.5 1409.5,860.5C 1409.01,863.711 1409.68,866.544 1411.5,869C 1449.2,869.597 1486.87,869.931 1524.5,870C 1525.89,871.02 1527.39,871.853 1529,872.5C 1529.67,884.167 1529.67,895.833 1529,907.5C 1528.29,908.973 1527.12,909.64 1525.5,909.5C 1525.5,911.5 1525.5,913.5 1525.5,915.5C 1524.17,915.5 1522.83,915.5 1521.5,915.5C 1521.71,917.144 1521.38,918.644 1520.5,920C 1516.21,923.06 1511.54,924.894 1506.5,925.5C 1501.83,925.5 1497.17,925.5 1492.5,925.5C 1492.5,925.167 1492.5,924.833 1492.5,924.5C 1492.83,924.5 1493.17,924.5 1493.5,924.5C 1497.44,923.514 1501.44,922.848 1505.5,922.5C 1508.18,922.538 1510.68,921.871 1513,920.5C 1516.65,918.138 1519.81,915.472 1522.5,912.5C 1523.06,907.22 1524.56,902.22 1527,897.5C 1527.82,889.988 1527.66,882.655 1526.5,875.5C 1525.33,874.655 1524,873.989 1522.5,873.5C 1518.57,870.278 1514.24,869.778 1509.5,872C 1476.43,872.825 1443.43,872.659 1410.5,871.5C 1408.34,870.256 1406,869.256 1403.5,868.5C 1403.17,865.5 1404.5,864.167 1407.5,864.5C 1407.5,862.167 1407.5,859.833 1407.5,857.5C 1408.25,850.191 1408.58,842.858 1408.5,835.5C 1408.29,772.157 1408.95,708.824 1410.5,645.5C 1410.59,509.509 1410.42,373.509 1410,237.5C 1408.56,178.84 1408.22,120.173 1409,61.5C 1410.54,55.0889 1411.37,48.5889 1411.5,42C 1411.48,38.7485 1410.81,35.9151 1409.5,33.5C 1408.16,29.5403 1406.83,25.5403 1405.5,21.5C 1404.13,19.3948 1403.13,17.0614 1402.5,14.5C 1400.7,12.5509 1398.7,10.8842 1396.5,9.5C 1394.35,7.53045 1392.02,5.69712 1389.5,4C 1385.97,3.91102 1382.64,3.24435 1379.5,2C 969,1.16687 558.666,1.33354 148.5,2.5C 147.005,2.98869 145.671,3.65536 144.5,4.5C 135.789,6.28278 128.955,10.9495 124,18.5C 122.748,21.0135 122.248,23.6802 122.5,26.5C 120.221,34.8826 119.221,43.5492 119.5,52.5C 119.167,321.667 119.5,590.667 120.5,859.5C 120.328,860.492 120.662,861.158 121.5,861.5C 122.993,867.052 120.993,870.052 115.5,870.5C 114.711,870.783 114.044,871.283 113.5,872C 77.1667,872.333 40.8333,872.667 4.5,873C 3.94404,873.383 3.61071,873.883 3.5,874.5C 2.34097,885.326 2.17431,896.326 3,907.5C 4.01127,908.337 5.17793,908.67 6.5,908.5C 6.99551,915.642 10.6622,920.309 17.5,922.5C 19.2646,923.461 21.2646,923.795 23.5,923.5C 23.5,924.167 23.5,924.833 23.5,925.5C 21.8333,925.5 20.1667,925.5 18.5,925.5C 16.7078,924.691 14.7078,924.191 12.5,924C 9.56604,921.539 6.56604,919.373 3.5,917.5C 4.32021,913.817 2.98688,911.483 -0.5,910.5C -0.5,897.833 -0.5,885.167 -0.5,872.5C 1.51153,871.772 3.51153,870.938 5.5,870C 42.3123,869.578 78.9789,869.411 115.5,869.5C 115.338,588.606 115.504,307.606 116,26.5C 120.037,12.6907 129.204,4.19074 143.5,1C 199.668,0.832825 255.668,0.332825 311.5,-0.5 Z"/></g>
<g><path style="opacity:0.582" fill="#ececed" d="M 148.5,2.5 C 558.666,1.33354 969,1.16687 1379.5,2C 1382.64,3.24435 1385.97,3.91102 1389.5,4C 1392.02,5.69712 1394.35,7.53045 1396.5,9.5C 1396.63,10.2389 1396.46,10.9056 1396,11.5C 1393.9,8.54516 1391.07,6.87849 1387.5,6.5C 1385.12,4.95386 1382.45,4.2872 1379.5,4.5C 1378.74,3.73209 1377.74,3.23209 1376.5,3C 967.167,2.5 557.833,2.33333 148.5,2.5 Z"/></g>
<g><path style="opacity:1" fill="#4a4a4b" d="M 148.5,2.5 C 557.833,2.33333 967.167,2.5 1376.5,3C 1377.74,3.23209 1378.74,3.73209 1379.5,4.5C 967.829,3.1672 556.163,3.1672 144.5,4.5C 145.671,3.65536 147.005,2.98869 148.5,2.5 Z"/></g>
<g><path style="opacity:1" fill="#000000" d="M 1399.5,26.5 C 1400.5,298.146 1400.83,569.812 1400.5,841.5C 974.833,841.5 549.167,841.5 123.5,841.5C 123.5,571.167 123.5,300.833 123.5,30.5C 123.151,26.0486 124.317,22.0486 127,18.5C 129.833,15.6667 132.667,12.8333 135.5,10C 139.284,8.0531 143.284,6.71977 147.5,6C 557.5,5.33333 967.5,5.33333 1377.5,6C 1388.91,8.58527 1396.25,15.4186 1399.5,26.5 Z"/></g>
<g><path style="opacity:1" fill="#fefefe" d="M 1385.5,30.5 C 1385.5,295.833 1385.5,561.167 1385.5,826.5C 969.833,826.5 554.167,826.5 138.5,826.5C 138.5,560.5 138.5,294.5 138.5,28.5C 140.011,24.8241 142.677,22.3241 146.5,21C 328.833,20.3333 511.167,20.3333 693.5,21C 694.126,21.7504 694.626,22.5838 695,23.5C 695.138,29.5813 695.804,35.5813 697,41.5C 697.75,42.1258 698.584,42.6258 699.5,43C 740.833,43.6667 782.167,43.6667 823.5,43C 825.667,42.1667 827.167,40.6667 828,38.5C 828.333,33.1667 828.667,27.8333 829,22.5C 829.5,22 830,21.5 830.5,21C 1012.83,20.3333 1195.17,20.3333 1377.5,21C 1381.51,23.1634 1384.17,26.3301 1385.5,30.5 Z"/></g>
<g><path style="opacity:0.729" fill="#989898" d="M 1405.5,21.5 C 1406.83,25.5403 1408.16,29.5403 1409.5,33.5C 1409.5,34.1667 1409.5,34.8333 1409.5,35.5C 1409.72,40.7463 1408.89,45.7463 1407,50.5C 1406.88,41.4224 1406.05,32.4224 1404.5,23.5C 1404.54,22.5836 1404.88,21.9169 1405.5,21.5 Z"/></g>
<g><path style="opacity:1" fill="#2a2a2b" d="M 1402.5,25.5 C 1403.5,304.666 1403.83,584 1403.5,863.5C 1402.83,865.167 1402.17,866.833 1401.5,868.5C 1401.5,867.5 1401.5,866.5 1401.5,865.5C 1401.83,862.833 1402.17,860.167 1402.5,857.5C 1402.5,580.167 1402.5,302.833 1402.5,25.5 Z"/></g>
<g><path style="opacity:0.773" fill="#999999" d="M 122.5,26.5 C 122.5,27.8333 122.5,29.1667 122.5,30.5C 122.5,32.1667 122.5,33.8333 122.5,35.5C 121.5,199.999 121.167,364.666 121.5,529.5C 120.833,370.5 120.167,211.5 119.5,52.5C 119.221,43.5492 120.221,34.8826 122.5,26.5 Z"/></g>
<g><path style="opacity:0.875" fill="#666666" d="M 122.5,35.5 C 122.5,304.5 122.5,573.5 122.5,842.5C 122.5,848.833 122.5,855.167 122.5,861.5C 122.167,861.5 121.833,861.5 121.5,861.5C 120.662,861.158 120.328,860.492 120.5,859.5C 121.033,749.501 121.366,639.501 121.5,529.5C 121.167,364.666 121.5,199.999 122.5,35.5 Z"/></g>
<g><path style="opacity:0.738" fill="#929292" d="M 1407.5,190.5 C 1408.42,225.156 1408.75,259.822 1408.5,294.5C 1408.99,395.544 1408.49,496.544 1407,597.5C 1406.17,461.666 1406.33,325.999 1407.5,190.5 Z"/></g>
<g><path style="opacity:0.48" fill="#e4e4e4" d="M 1409.5,33.5 C 1410.81,35.9151 1411.48,38.7485 1411.5,42C 1411.37,48.5889 1410.54,55.0889 1409,61.5C 1408.22,120.173 1408.56,178.84 1410,237.5C 1410.42,373.509 1410.59,509.509 1410.5,645.5C 1408.95,708.824 1408.29,772.157 1408.5,835.5C 1409.31,655.169 1409.31,474.836 1408.5,294.5C 1408.75,259.822 1408.42,225.156 1407.5,190.5C 1407.33,146.165 1407.5,101.832 1408,57.5C 1410.03,50.1026 1410.53,42.7693 1409.5,35.5C 1409.5,34.8333 1409.5,34.1667 1409.5,33.5 Z"/></g>
<g><path style="opacity:0.94" fill="#b1b1b3" d="M 1387.5,6.5 C 1391.07,6.87849 1393.9,8.54516 1396,11.5C 1396.46,10.9056 1396.63,10.2389 1396.5,9.5C 1398.7,10.8842 1400.7,12.5509 1402.5,14.5C 1403.13,17.0614 1404.13,19.3948 1405.5,21.5C 1404.88,21.9169 1404.54,22.5836 1404.5,23.5C 1406.05,32.4224 1406.88,41.4224 1407,50.5C 1408.89,45.7463 1409.72,40.7463 1409.5,35.5C 1410.53,42.7693 1410.03,50.1026 1408,57.5C 1407.5,101.832 1407.33,146.165 1407.5,190.5C 1406.33,325.999 1406.17,461.666 1407,597.5C 1408.49,496.544 1408.99,395.544 1408.5,294.5C 1409.31,474.836 1409.31,655.169 1408.5,835.5C 1408.58,842.858 1408.25,850.191 1407.5,857.5C 1406.78,857.082 1406.28,856.416 1406,855.5C 1405.37,857.713 1405.54,859.88 1406.5,862C 1406.06,863.762 1405.56,863.595 1405,861.5C 1404.72,862.416 1404.22,863.082 1403.5,863.5C 1403.83,584 1403.5,304.666 1402.5,25.5C 1401.2,21.5766 1399.37,17.9099 1397,14.5C 1393.64,11.9688 1390.48,9.30209 1387.5,6.5 Z"/></g>
<g><path style="opacity:0.728" fill="#b7b8b8" d="M 119.5,52.5 C 120.167,211.5 120.833,370.5 121.5,529.5C 121.366,639.501 121.033,749.501 120.5,859.5C 119.5,590.667 119.167,321.667 119.5,52.5 Z"/></g>
<g><path style="opacity:1" fill="#d9d9d9" d="M 138.5,28.5 C 138.5,294.5 138.5,560.5 138.5,826.5C 554.167,826.5 969.833,826.5 1385.5,826.5C 1385.5,561.167 1385.5,295.833 1385.5,30.5C 1386.5,295.999 1386.83,561.666 1386.5,827.5C 970.167,827.5 553.833,827.5 137.5,827.5C 137.167,560.999 137.5,294.666 138.5,28.5 Z"/></g>
<g><path style="opacity:1" fill="#171717" d="M 1399.5,26.5 C 1400.27,27.2625 1400.77,28.2625 1401,29.5C 1401.17,165 1401.33,300.5 1401.5,436C 1401.5,571.667 1401.17,707.167 1400.5,842.5C 974.5,842.5 548.5,842.5 122.5,842.5C 122.5,573.5 122.5,304.5 122.5,35.5C 122.5,33.8333 122.5,32.1667 122.5,30.5C 122.833,30.5 123.167,30.5 123.5,30.5C 123.5,300.833 123.5,571.167 123.5,841.5C 549.167,841.5 974.833,841.5 1400.5,841.5C 1400.83,569.812 1400.5,298.146 1399.5,26.5 Z"/></g>
<g><path style="opacity:1" fill="#212121" d="M 1379.5,4.5 C 1382.45,4.2872 1385.12,4.95386 1387.5,6.5C 1390.48,9.30209 1393.64,11.9688 1397,14.5C 1399.37,17.9099 1401.2,21.5766 1402.5,25.5C 1402.5,302.833 1402.5,580.167 1402.5,857.5C 1400.26,856.7 1399.26,855.034 1399.5,852.5C 974.162,852.141 548.829,852.141 123.5,852.5C 123.5,849.5 123.5,846.5 123.5,843.5C 549.334,843.833 975,843.5 1400.5,842.5C 1401.17,707.167 1401.5,571.667 1401.5,436C 1401.33,300.5 1401.17,165 1401,29.5C 1400.77,28.2625 1400.27,27.2625 1399.5,26.5C 1396.25,15.4186 1388.91,8.58527 1377.5,6C 967.5,5.33333 557.5,5.33333 147.5,6C 143.284,6.71977 139.284,8.0531 135.5,10C 132.667,12.8333 129.833,15.6667 127,18.5C 124.317,22.0486 123.151,26.0486 123.5,30.5C 123.167,30.5 122.833,30.5 122.5,30.5C 122.5,29.1667 122.5,27.8333 122.5,26.5C 122.248,23.6802 122.748,21.0135 124,18.5C 128.955,10.9495 135.789,6.28278 144.5,4.5C 556.163,3.1672 967.829,3.1672 1379.5,4.5 Z"/></g>
<g><path style="opacity:1" fill="#2c2c2c" d="M 122.5,842.5 C 548.5,842.5 974.5,842.5 1400.5,842.5C 975,843.5 549.334,843.833 123.5,843.5C 123.5,846.5 123.5,849.5 123.5,852.5C 123.5,858.167 123.5,863.833 123.5,869.5C 123.5,869.833 123.5,870.167 123.5,870.5C 123.167,870.5 122.833,870.5 122.5,870.5C 122.5,867.5 122.5,864.5 122.5,861.5C 122.5,855.167 122.5,848.833 122.5,842.5 Z"/></g>
<g><path style="opacity:1" fill="#1b1b1b" d="M 1402.5,857.5 C 1402.17,860.167 1401.83,862.833 1401.5,865.5C 1400.98,867.219 1399.98,868.552 1398.5,869.5C 1399.14,867.54 1399.14,865.707 1398.5,864C 1395.67,863.833 1392.83,863.667 1390,863.5C 968.338,863.722 546.505,863.722 124.5,863.5C 124.325,865.621 124.659,867.621 125.5,869.5C 124.833,869.5 124.167,869.5 123.5,869.5C 123.5,863.833 123.5,858.167 123.5,852.5C 548.829,852.141 974.162,852.141 1399.5,852.5C 1399.26,855.034 1400.26,856.7 1402.5,857.5 Z"/></g>
<g><path style="opacity:1" fill="#dcdcdd" d="M 115.5,870.5 C 115.586,871.496 115.252,872.329 114.5,873C 104.839,873.5 95.1724,873.666 85.5,873.5C 83.8333,873.5 82.1667,873.5 80.5,873.5C 64.5,873.5 48.5,873.5 32.5,873.5C 27.8215,873.334 23.1548,873.501 18.5,874C 18.8308,882.947 19.1641,891.614 19.5,900C 18.1447,904.437 15.3114,905.604 11,903.5C 10.5291,901.754 9.86241,900.087 9,898.5C 8.50027,890.173 8.3336,881.84 8.5,873.5C 6.7839,873.629 5.11723,873.962 3.5,874.5C 3.61071,873.883 3.94404,873.383 4.5,873C 40.8333,872.667 77.1667,872.333 113.5,872C 114.044,871.283 114.711,870.783 115.5,870.5 Z"/></g>
<g><path style="opacity:1" fill="#dddddf" d="M 1522.5,873.5 C 1520.5,873.5 1518.5,873.5 1516.5,873.5C 1516.67,881.507 1516.5,889.507 1516,897.5C 1514.07,903.944 1509.9,906.277 1503.5,904.5C 1502.64,903.264 1501.98,901.931 1501.5,900.5C 1501.35,891.399 1501.68,882.399 1502.5,873.5C 1499.83,873.5 1497.17,873.5 1494.5,873.5C 1479.17,873.5 1463.83,873.5 1448.5,873.5C 1444.17,873.5 1439.83,873.5 1435.5,873.5C 1426.77,874.135 1418.43,873.468 1410.5,871.5C 1443.43,872.659 1476.43,872.825 1509.5,872C 1514.24,869.778 1518.57,870.278 1522.5,873.5 Z"/></g>
<g><path style="opacity:1" fill="#c7c7c9" d="M 1407.5,857.5 C 1407.5,859.833 1407.5,862.167 1407.5,864.5C 1404.5,864.167 1403.17,865.5 1403.5,868.5C 1406,869.256 1408.34,870.256 1410.5,871.5C 1418.43,873.468 1426.77,874.135 1435.5,873.5C 1433.91,874.219 1432.41,875.219 1431,876.5C 1430.67,876.167 1430.33,875.833 1430,875.5C 1426.33,877.167 1422.67,878.833 1419,880.5C 1417.07,880.179 1414.9,879.512 1412.5,878.5C 1410.83,879.167 1409.17,879.833 1407.5,880.5C 1402.73,881.266 1398.07,881.266 1393.5,880.5C 1387.72,881.005 1381.89,882.005 1376,883.5C 1375.67,883.167 1375.33,882.833 1375,882.5C 1359.59,884.176 1344.25,885.509 1329,886.5C 1326.43,885.958 1324.1,885.624 1322,885.5C 1320.09,886.93 1317.93,887.596 1315.5,887.5C 1312.57,886.595 1309.74,886.261 1307,886.5C 1304,887.167 1301,887.833 1298,888.5C 1295.55,888.039 1293.05,887.706 1290.5,887.5C 1287.22,888.254 1283.89,888.754 1280.5,889C 1279.32,890.678 1278.15,890.512 1277,888.5C 1268.5,890.636 1260.17,891.303 1252,890.5C 1248.43,891.032 1244.93,891.699 1241.5,892.5C 1237.86,891.558 1234.02,890.892 1230,890.5C 1222.43,891.421 1214.43,891.421 1206,890.5C 1205.31,892.891 1204.31,892.891 1203,890.5C 1197.79,891.027 1192.79,892.36 1188,894.5C 1179.15,894.151 1170.48,893.818 1162,893.5C 1158.67,894.167 1155.33,894.833 1152,895.5C 1149.41,893.986 1146.58,893.32 1143.5,893.5C 1135.39,894.286 1127.23,894.286 1119,893.5C 1116.67,894.167 1114.33,894.833 1112,895.5C 1109,894.167 1106,894.167 1103,895.5C 1100.53,893.575 1097.87,893.575 1095,895.5C 1092.53,894.212 1090.03,894.212 1087.5,895.5C 1086.68,893.252 1085.68,893.086 1084.5,895C 1082.33,895.167 1080.17,895.333 1078,895.5C 1042.85,894.786 1008.19,894.786 974,895.5C 969.18,895.33 964.513,895.996 960,897.5C 955.839,895.879 951.839,896.212 948,898.5C 943.203,897.189 938.537,897.523 934,899.5C 923.964,898.236 914.131,898.236 904.5,899.5C 903.353,899.182 902.519,898.516 902,897.5C 901.692,898.308 901.192,898.975 900.5,899.5C 891.822,898.901 883.322,898.568 875,898.5C 873.667,899.167 872.333,899.833 871,900.5C 870.667,899.833 870.333,899.167 870,898.5C 866.542,898.938 863.209,898.938 860,898.5C 857.539,899.218 855.039,899.885 852.5,900.5C 838.886,900.084 825.386,899.751 812,899.5C 811.667,900.167 811.333,900.833 811,901.5C 808.848,899.184 806.348,898.85 803.5,900.5C 802.833,899.833 802.167,899.167 801.5,898.5C 798.298,899.127 795.131,899.794 792,900.5C 791.5,900 791,899.5 790.5,899C 787.11,898.754 783.777,898.254 780.5,897.5C 763.447,898.253 745.947,898.253 728,897.5C 724.918,897.636 722.251,898.636 720,900.5C 717.333,897.833 714.667,897.833 712,900.5C 711.612,899.572 710.945,898.905 710,898.5C 704.93,898.531 699.763,899.198 694.5,900.5C 693.833,899.5 693.167,898.5 692.5,897.5C 683.121,898.305 673.954,898.639 665,898.5C 663.691,896.109 662.691,896.109 662,898.5C 651.229,897.186 640.229,897.186 629,898.5C 627.887,896.2 626.387,895.867 624.5,897.5C 622.813,897.24 621.313,896.573 620,895.5C 613.049,896.877 606.049,897.877 599,898.5C 593.941,897.63 588.941,897.297 584,897.5C 583.333,898.167 582.667,898.833 582,899.5C 578.451,897.817 574.617,896.817 570.5,896.5C 562.102,896.407 553.602,896.741 545,897.5C 544.055,897.095 543.388,896.428 543,895.5C 540.667,896.833 538.333,896.833 536,895.5C 534.667,896.167 533.333,896.833 532,897.5C 525.667,896.833 519.333,896.167 513,895.5C 494.194,895.778 475.194,895.778 456,895.5C 454.667,896.167 453.333,896.833 452,897.5C 448.333,896.833 444.667,896.167 441,895.5C 436.144,895.818 431.311,895.818 426.5,895.5C 424.403,895.997 422.57,896.33 421,896.5C 418.428,893.636 415.261,893.303 411.5,895.5C 410.252,894.96 409.085,894.293 408,893.5C 396.796,894.396 385.13,894.063 373,892.5C 359.075,893.022 344.742,893.022 330,892.5C 328.237,892.025 326.57,891.358 325,890.5C 314.292,891.827 303.792,891.827 293.5,890.5C 292.833,891.167 292.167,891.833 291.5,892.5C 283.301,891.454 275.134,890.454 267,889.5C 263.261,890.007 259.594,890.673 256,891.5C 251.667,890.167 247.333,890.167 243,891.5C 242,890.833 241,890.167 240,889.5C 237.301,889.299 234.468,889.632 231.5,890.5C 225.523,886.005 219.023,885.339 212,888.5C 206.667,887.167 201.333,887.167 196,888.5C 194.518,886.219 192.851,886.219 191,888.5C 189.806,887.57 188.473,886.903 187,886.5C 182.971,886.713 178.971,887.046 175,887.5C 170.561,886.951 166.061,885.951 161.5,884.5C 157.945,885.19 154.445,885.523 151,885.5C 150.333,884.833 149.667,884.167 149,883.5C 137.733,883.1 126.4,883.1 115,883.5C 112.065,883.304 109.399,881.97 107,879.5C 106.586,879.957 106.086,880.291 105.5,880.5C 101.079,879.724 96.9124,878.391 93,876.5C 91.4931,877.535 89.9931,877.368 88.5,876C 89.6956,875.346 89.6956,874.846 88.5,874.5C 86.7751,876.092 85.7751,875.758 85.5,873.5C 95.1724,873.666 104.839,873.5 114.5,873C 115.252,872.329 115.586,871.496 115.5,870.5C 120.993,870.052 122.993,867.052 121.5,861.5C 121.833,861.5 122.167,861.5 122.5,861.5C 122.5,864.5 122.5,867.5 122.5,870.5C 196.665,871.499 270.998,871.833 345.5,871.5C 316.338,872.498 287.005,872.831 257.5,872.5C 224.833,872.5 192.167,872.5 159.5,872.5C 146.829,872.333 134.162,872.5 121.5,873C 128.181,874.58 134.681,876.08 141,877.5C 146.964,877.316 153.131,877.316 159.5,877.5C 162.276,877.946 164.776,878.946 167,880.5C 167.667,879.833 168.333,879.167 169,878.5C 172,879.833 175,879.833 178,878.5C 178.333,879.167 178.667,879.833 179,880.5C 181.68,880.015 184.347,879.682 187,879.5C 188.085,880.293 189.252,880.96 190.5,881.5C 198.271,881.911 205.771,881.911 213,881.5C 216.056,882.077 219.056,882.743 222,883.5C 228.521,883.761 235.188,883.428 242,882.5C 250.612,883.799 259.279,884.799 268,885.5C 271.637,885.229 275.303,884.896 279,884.5C 280,885.167 281,885.833 282,886.5C 290.248,885.571 298.581,885.238 307,885.5C 307.667,886.167 308.333,886.833 309,887.5C 315.707,886.883 322.373,886.55 329,886.5C 336.705,887.707 344.205,888.207 351.5,888C 353.059,886.244 354.726,886.244 356.5,888C 361.705,888.241 366.872,888.741 372,889.5C 377.507,888.497 382.507,888.497 387,889.5C 389.734,887.188 392.234,887.021 394.5,889C 397.38,889.684 400.213,889.517 403,888.5C 405.4,889.044 407.733,889.711 410,890.5C 420.203,890.176 431.036,889.843 442.5,889.5C 445.434,890.42 448.434,891.087 451.5,891.5C 454.406,890.472 457.239,890.472 460,891.5C 461.333,890.833 462.667,890.167 464,889.5C 468.629,890.554 473.129,891.22 477.5,891.5C 479.104,891.061 480.604,890.394 482,889.5C 484.055,890.692 486.055,890.692 488,889.5C 496.333,890.167 504.667,890.833 513,891.5C 516.254,889.957 519.587,890.29 523,892.5C 527.709,892.222 532.542,891.555 537.5,890.5C 548.516,891.514 559.349,891.514 570,890.5C 574.619,891.221 579.286,891.887 584,892.5C 586.449,891.884 588.949,892.217 591.5,893.5C 593.373,894.089 595.04,893.422 596.5,891.5C 604.637,892.818 612.803,892.818 621,891.5C 626.468,892.188 631.968,892.855 637.5,893.5C 638.748,892.96 639.915,892.293 641,891.5C 649.422,892.318 657.922,892.818 666.5,893C 667.5,893.5 668.5,894 669.5,894.5C 674.13,893.632 678.63,893.632 683,894.5C 684.52,893.493 686.187,892.827 688,892.5C 695.644,892.704 703.311,893.371 711,894.5C 715.238,893.511 719.572,892.844 724,892.5C 727.531,893.52 731.031,893.52 734.5,892.5C 737.761,892.903 740.928,893.57 744,894.5C 747.892,894.377 751.892,893.71 756,892.5C 762.597,892.781 769.264,892.781 776,892.5C 779.333,893.167 782.667,893.833 786,894.5C 793.088,893.383 800.088,892.716 807,892.5C 808.895,892.615 810.562,893.282 812,894.5C 814.393,892.633 816.893,891.966 819.5,892.5C 826.394,894.449 833.394,894.449 840.5,892.5C 851.854,893.077 863.687,893.41 876,893.5C 876.689,892.643 877.522,891.977 878.5,891.5C 893.721,892.777 908.555,892.777 923,891.5C 925.08,893.973 927.246,893.973 929.5,891.5C 933.504,891.825 937.504,892.158 941.5,892.5C 948.053,891.891 954.553,891.224 961,890.5C 962.441,891.26 963.941,891.926 965.5,892.5C 969.367,891.865 973.2,891.199 977,890.5C 983.659,891.007 990.492,891.34 997.5,891.5C 998.192,890.975 998.692,890.308 999,889.5C 1002.99,890.39 1006.99,891.39 1011,892.5C 1020.48,892.217 1030.31,891.551 1040.5,890.5C 1049.29,891.134 1058.13,891.468 1067,891.5C 1071,890.833 1075,890.167 1079,889.5C 1087.37,890.321 1095.7,890.654 1104,890.5C 1107.82,889.753 1111.65,889.087 1115.5,888.5C 1117.32,888.649 1118.82,889.316 1120,890.5C 1123.47,889.798 1126.97,889.131 1130.5,888.5C 1142.35,888.544 1154.52,888.878 1167,889.5C 1167.74,888.426 1168.74,887.759 1170,887.5C 1176.37,887.464 1183.03,887.798 1190,888.5C 1193.62,885.109 1197.62,884.775 1202,887.5C 1204.49,886.244 1206.99,886.244 1209.5,887.5C 1213.33,887.03 1217,886.03 1220.5,884.5C 1223.42,887.113 1226.25,887.113 1229,884.5C 1229.33,885.167 1229.67,885.833 1230,886.5C 1232.48,885.978 1234.81,885.978 1237,886.5C 1238.44,885.282 1240.1,884.615 1242,884.5C 1252.58,884.524 1263.08,884.524 1273.5,884.5C 1274.17,883.833 1274.83,883.167 1275.5,882.5C 1282.46,883.311 1289.29,883.645 1296,883.5C 1299.13,882.794 1302.3,882.127 1305.5,881.5C 1313.93,882.673 1322.76,882.006 1332,879.5C 1337.05,880.005 1342.05,880.338 1347,880.5C 1348.67,879.833 1350.33,879.167 1352,878.5C 1354.23,878.374 1356.57,878.707 1359,879.5C 1361.33,878.833 1363.67,878.167 1366,877.5C 1371.7,877.49 1377.7,877.49 1384,877.5C 1385.97,875.568 1388.14,875.068 1390.5,876C 1391.17,875 1391.83,874 1392.5,873C 1383.17,872.5 1373.84,872.334 1364.5,872.5C 1335.83,872.5 1307.17,872.5 1278.5,872.5C 1145.17,872.5 1011.83,872.5 878.5,872.5C 878.737,873.791 878.404,874.791 877.5,875.5C 877.5,874.167 877.5,872.833 877.5,871.5C 1052.17,871.5 1226.83,871.5 1401.5,871.5C 1401.5,870.5 1401.5,869.5 1401.5,868.5C 1402.17,866.833 1402.83,865.167 1403.5,863.5C 1404.22,863.082 1404.72,862.416 1405,861.5C 1405.56,863.595 1406.06,863.762 1406.5,862C 1405.54,859.88 1405.37,857.713 1406,855.5C 1406.28,856.416 1406.78,857.082 1407.5,857.5 Z"/></g>
<g><path style="opacity:1" fill="#8c8c8c" d="M 872.5,871.5 C 874.167,871.5 875.833,871.5 877.5,871.5C 877.5,872.833 877.5,874.167 877.5,875.5C 876.079,878.009 874.412,880.343 872.5,882.5C 872.06,879.038 872.06,875.371 872.5,871.5 Z"/></g>
<g><path style="opacity:1" fill="#ddddde" d="M 345.5,871.5 C 445.167,871.5 544.833,871.5 644.5,871.5C 644.578,875.656 646.245,878.989 649.5,881.5C 649.352,878.412 649.685,875.245 650.5,872C 722.833,871.5 795.166,871.333 867.5,871.5C 867.5,871.833 867.5,872.167 867.5,872.5C 796.5,872.5 725.5,872.5 654.5,872.5C 653.996,877.629 655.329,882.129 658.5,886C 726.167,886.667 793.833,886.667 861.5,886C 862.736,884.915 864.069,884.082 865.5,883.5C 865.426,885.411 864.426,886.578 862.5,887C 792.167,887.667 721.833,887.667 651.5,887C 643.913,886.264 636.746,885.764 630,885.5C 628.426,886.848 626.593,887.514 624.5,887.5C 619.132,886.942 613.799,886.276 608.5,885.5C 602.118,887.794 595.618,887.794 589,885.5C 586.923,886.017 584.923,886.684 583,887.5C 582.667,886.833 582.333,886.167 582,885.5C 577.231,887.433 572.564,887.433 568,885.5C 551.049,885.975 534.716,886.309 519,886.5C 515.252,884.539 511.419,884.206 507.5,885.5C 503.544,885.313 499.711,884.646 496,883.5C 495,884.167 494,884.833 493,885.5C 485.056,885.028 477.056,885.028 469,885.5C 468,884.5 467,883.5 466,882.5C 462.909,882.614 459.742,883.281 456.5,884.5C 444.29,881.759 432.29,881.425 420.5,883.5C 413.645,882.398 406.478,882.398 399,883.5C 397.604,881.473 395.938,881.14 394,882.5C 393.667,881.833 393.333,881.167 393,880.5C 392.261,881.574 391.261,882.241 390,882.5C 385.501,881.499 380.834,881.499 376,882.5C 373.539,881.782 371.039,881.115 368.5,880.5C 362.337,881.328 356.004,880.995 349.5,879.5C 342.631,879.548 335.131,879.881 327,880.5C 325.715,880.05 324.548,879.383 323.5,878.5C 318.68,878.469 313.846,878.469 309,878.5C 308.055,878.095 307.388,877.428 307,876.5C 306.333,877.167 305.667,877.833 305,878.5C 303.089,878.255 301.089,878.255 299,878.5C 298,877.833 297,877.167 296,876.5C 293.213,877.685 290.88,877.018 289,874.5C 288.612,875.428 287.945,876.095 287,876.5C 281.58,875.377 276.08,875.377 270.5,876.5C 268.575,876.41 267.408,875.41 267,873.5C 265.667,876.167 264.333,876.167 263,873.5C 260.216,876.006 258.383,875.673 257.5,872.5C 287.005,872.831 316.338,872.498 345.5,871.5 Z"/></g>
<g><path style="opacity:1" fill="#d6d6d8" d="M 867.5,871.5 C 868.5,871.5 869.5,871.5 870.5,871.5C 871.167,871.5 871.833,871.5 872.5,871.5C 872.06,875.371 872.06,879.038 872.5,882.5C 870.691,883.481 869.357,884.981 868.5,887C 869.766,887.309 870.933,887.809 872,888.5C 875.333,887.167 878.667,887.167 882,888.5C 888.075,887.956 894.075,886.956 900,885.5C 910.48,886.204 921.48,886.204 933,885.5C 937.147,886.564 941.147,887.231 945,887.5C 953.645,886.279 962.311,885.279 971,884.5C 976.684,885.609 982.184,885.609 987.5,884.5C 992.773,885.757 997.607,886.424 1002,886.5C 1009,885.833 1016,885.167 1023,884.5C 1027.76,885.154 1032.42,884.487 1037,882.5C 1048.84,883.454 1060.68,883.454 1072.5,882.5C 1076.15,883.09 1079.49,883.757 1082.5,884.5C 1088.48,883.79 1094.48,883.123 1100.5,882.5C 1106.95,882.659 1113.45,882.993 1120,883.5C 1122.67,882.833 1125.33,882.167 1128,881.5C 1130.91,882.285 1133.74,882.619 1136.5,882.5C 1142.7,881.853 1148.86,881.186 1155,880.5C 1158.65,881.381 1162.48,881.714 1166.5,881.5C 1168.78,880.679 1171.12,880.012 1173.5,879.5C 1178.04,879.596 1182.88,879.929 1188,880.5C 1189.67,879.833 1191.33,879.167 1193,878.5C 1194.54,878.913 1196.2,878.913 1198,878.5C 1199.83,880.756 1201.5,880.756 1203,878.5C 1204.75,879.174 1206.42,879.507 1208,879.5C 1210,878.833 1212,878.167 1214,877.5C 1215.78,878.479 1217.45,878.146 1219,876.5C 1220.74,876.566 1222.57,877.233 1224.5,878.5C 1229.56,876.933 1234.39,876.599 1239,877.5C 1240.59,876.624 1242.09,875.624 1243.5,874.5C 1245.91,876.33 1248.41,876.997 1251,876.5C 1252.57,874.832 1254.23,874.498 1256,875.5C 1256.95,875.095 1257.61,874.428 1258,873.5C 1258.36,876.544 1259.03,876.878 1260,874.5C 1261.79,876.513 1263.12,876.513 1264,874.5C 1265.67,874.833 1267.33,875.167 1269,875.5C 1270.63,873.288 1272.63,872.954 1275,874.5C 1276.7,874.613 1277.87,873.947 1278.5,872.5C 1307.17,872.5 1335.83,872.5 1364.5,872.5C 1363.12,873.234 1361.62,873.901 1360,874.5C 1359.59,874.043 1359.09,873.709 1358.5,873.5C 1353.35,874.755 1348.18,875.755 1343,876.5C 1340.96,875.994 1338.96,875.661 1337,875.5C 1335.74,875.759 1334.74,876.426 1334,877.5C 1332,876.167 1330,876.167 1328,877.5C 1326,877.004 1324.34,876.004 1323,874.5C 1322.63,875.416 1322.13,876.25 1321.5,877C 1318.68,877.564 1316.18,878.064 1314,878.5C 1313.67,877.833 1313.33,877.167 1313,876.5C 1312.2,877.804 1311.03,878.471 1309.5,878.5C 1306.76,878.512 1303.93,878.178 1301,877.5C 1294.4,878.864 1287.73,879.864 1281,880.5C 1276.04,880.129 1271.04,879.795 1266,879.5C 1265.69,880.308 1265.19,880.975 1264.5,881.5C 1261.51,881.319 1258.51,880.985 1255.5,880.5C 1251.97,881.131 1248.47,881.798 1245,882.5C 1242.46,882.413 1239.96,882.413 1237.5,882.5C 1236.5,881.833 1235.5,881.167 1234.5,880.5C 1231.85,882.019 1229.02,883.019 1226,883.5C 1216.01,883.618 1206.01,883.285 1196,882.5C 1190.72,884.656 1185.39,884.656 1180,882.5C 1179.25,883.126 1178.42,883.626 1177.5,884C 1174.11,884.246 1170.78,884.746 1167.5,885.5C 1163.88,884.321 1160.38,884.654 1157,886.5C 1155.67,885.833 1154.33,885.167 1153,884.5C 1149.67,885.167 1146.33,885.833 1143,886.5C 1134.03,886.332 1124.87,885.999 1115.5,885.5C 1112.63,886.122 1109.8,886.789 1107,887.5C 1088.67,887.583 1070.67,887.583 1053,887.5C 1046.22,889.339 1039.55,889.339 1033,887.5C 1031.58,888.573 1030.25,888.573 1029,887.5C 1028,888.167 1027,888.833 1026,889.5C 1021.57,888.672 1017.07,888.005 1012.5,887.5C 999.588,888.448 986.422,888.448 973,887.5C 969.2,888.199 965.367,888.865 961.5,889.5C 945.572,889.711 929.405,889.378 913,888.5C 904.253,889.558 895.419,890.225 886.5,890.5C 838.689,890.812 791.189,890.478 744,889.5C 738.31,891.952 732.643,891.952 727,889.5C 707.341,890.159 688.174,890.159 669.5,889.5C 664.628,891.281 659.628,891.281 654.5,889.5C 620.816,889.64 587.649,889.64 555,889.5C 550.333,888.833 545.667,888.167 541,887.5C 532.566,888.808 524.066,888.808 515.5,887.5C 514.833,888.167 514.167,888.833 513.5,889.5C 511.5,888.833 509.5,888.167 507.5,887.5C 499.98,887.383 492.147,887.716 484,888.5C 483.692,887.692 483.192,887.025 482.5,886.5C 481.452,887.383 480.285,888.05 479,888.5C 475.884,889.126 472.884,888.459 470,886.5C 459.188,888.234 448.355,888.401 437.5,887C 437,886.5 436.5,886 436,885.5C 432.02,886.285 428.186,886.285 424.5,885.5C 422.971,885.529 421.804,886.196 421,887.5C 413.953,887.173 406.786,886.507 399.5,885.5C 394.349,886.469 389.015,886.802 383.5,886.5C 377.856,885.787 372.189,885.12 366.5,884.5C 352.193,885.422 337.526,884.756 322.5,882.5C 315.683,883.165 308.849,883.498 302,883.5C 299.267,881.895 296.267,880.895 293,880.5C 289.592,880.011 286.259,880.678 283,882.5C 276.935,882.047 271.102,880.714 265.5,878.5C 262.579,879.378 259.912,879.378 257.5,878.5C 256.186,879.313 255.019,880.313 254,881.5C 251,880.833 248,880.167 245,879.5C 244.667,879.833 244.333,880.167 244,880.5C 241.143,877.399 238.143,876.732 235,878.5C 232.333,877.833 229.667,877.167 227,876.5C 226.333,877.833 225.333,878.833 224,879.5C 219.987,878.006 215.987,877.006 212,876.5C 210.488,878.957 209.154,878.957 208,876.5C 207.667,877.167 207.333,877.833 207,878.5C 204.539,877.782 202.039,877.115 199.5,876.5C 198.284,877.002 197.117,877.335 196,877.5C 194.518,875.219 192.851,875.219 191,877.5C 188.578,875.375 186.244,875.042 184,876.5C 182.691,874.109 181.691,874.109 181,876.5C 179.667,875.833 178.667,874.833 178,873.5C 176.149,875.781 174.482,875.781 173,873.5C 171.598,875.973 170.098,875.973 168.5,873.5C 166.604,873.336 164.604,873.669 162.5,874.5C 160.962,874.547 159.962,873.88 159.5,872.5C 192.167,872.5 224.833,872.5 257.5,872.5C 258.383,875.673 260.216,876.006 263,873.5C 264.333,876.167 265.667,876.167 267,873.5C 267.408,875.41 268.575,876.41 270.5,876.5C 276.08,875.377 281.58,875.377 287,876.5C 287.945,876.095 288.612,875.428 289,874.5C 290.88,877.018 293.213,877.685 296,876.5C 297,877.167 298,877.833 299,878.5C 301.089,878.255 303.089,878.255 305,878.5C 305.667,877.833 306.333,877.167 307,876.5C 307.388,877.428 308.055,878.095 309,878.5C 313.846,878.469 318.68,878.469 323.5,878.5C 324.548,879.383 325.715,880.05 327,880.5C 335.131,879.881 342.631,879.548 349.5,879.5C 356.004,880.995 362.337,881.328 368.5,880.5C 371.039,881.115 373.539,881.782 376,882.5C 380.834,881.499 385.501,881.499 390,882.5C 391.261,882.241 392.261,881.574 393,880.5C 393.333,881.167 393.667,881.833 394,882.5C 395.938,881.14 397.604,881.473 399,883.5C 406.478,882.398 413.645,882.398 420.5,883.5C 432.29,881.425 444.29,881.759 456.5,884.5C 459.742,883.281 462.909,882.614 466,882.5C 467,883.5 468,884.5 469,885.5C 477.056,885.028 485.056,885.028 493,885.5C 494,884.833 495,884.167 496,883.5C 499.711,884.646 503.544,885.313 507.5,885.5C 511.419,884.206 515.252,884.539 519,886.5C 534.716,886.309 551.049,885.975 568,885.5C 572.564,887.433 577.231,887.433 582,885.5C 582.333,886.167 582.667,886.833 583,887.5C 584.923,886.684 586.923,886.017 589,885.5C 595.618,887.794 602.118,887.794 608.5,885.5C 613.799,886.276 619.132,886.942 624.5,887.5C 626.593,887.514 628.426,886.848 630,885.5C 636.746,885.764 643.913,886.264 651.5,887C 721.833,887.667 792.167,887.667 862.5,887C 864.426,886.578 865.426,885.411 865.5,883.5C 867.087,880.081 867.753,876.415 867.5,872.5C 867.5,872.167 867.5,871.833 867.5,871.5 Z"/></g>
<g><path style="opacity:1" fill="#747474" d="M 122.5,870.5 C 122.833,870.5 123.167,870.5 123.5,870.5C 372.667,870.167 621.667,870.5 870.5,871.5C 869.5,871.5 868.5,871.5 867.5,871.5C 795.166,871.333 722.833,871.5 650.5,872C 649.685,875.245 649.352,878.412 649.5,881.5C 646.245,878.989 644.578,875.656 644.5,871.5C 544.833,871.5 445.167,871.5 345.5,871.5C 270.998,871.833 196.665,871.499 122.5,870.5 Z"/></g>
<g><path style="opacity:1" fill="#313131" d="M 1401.5,865.5 C 1401.5,866.5 1401.5,867.5 1401.5,868.5C 1401.5,869.5 1401.5,870.5 1401.5,871.5C 1226.83,871.5 1052.17,871.5 877.5,871.5C 875.833,871.5 874.167,871.5 872.5,871.5C 871.833,871.5 871.167,871.5 870.5,871.5C 621.667,870.5 372.667,870.167 123.5,870.5C 123.5,870.167 123.5,869.833 123.5,869.5C 124.167,869.5 124.833,869.5 125.5,869.5C 549.833,869.5 974.167,869.5 1398.5,869.5C 1399.98,868.552 1400.98,867.219 1401.5,865.5 Z"/></g>
<g><path style="opacity:1" fill="#161616" d="M 1398.5,869.5 C 974.167,869.5 549.833,869.5 125.5,869.5C 124.659,867.621 124.325,865.621 124.5,863.5C 546.505,863.722 968.338,863.722 1390,863.5C 1392.83,863.667 1395.67,863.833 1398.5,864C 1399.14,865.707 1399.14,867.54 1398.5,869.5 Z"/></g>
<g><path style="opacity:1" fill="#d0d0d2" d="M 159.5,872.5 C 159.962,873.88 160.962,874.547 162.5,874.5C 164.604,873.669 166.604,873.336 168.5,873.5C 170.098,875.973 171.598,875.973 173,873.5C 174.482,875.781 176.149,875.781 178,873.5C 178.667,874.833 179.667,875.833 181,876.5C 181.691,874.109 182.691,874.109 184,876.5C 186.244,875.042 188.578,875.375 191,877.5C 192.851,875.219 194.518,875.219 196,877.5C 197.117,877.335 198.284,877.002 199.5,876.5C 202.039,877.115 204.539,877.782 207,878.5C 207.333,877.833 207.667,877.167 208,876.5C 209.154,878.957 210.488,878.957 212,876.5C 215.987,877.006 219.987,878.006 224,879.5C 225.333,878.833 226.333,877.833 227,876.5C 229.667,877.167 232.333,877.833 235,878.5C 238.143,876.732 241.143,877.399 244,880.5C 244.333,880.167 244.667,879.833 245,879.5C 248,880.167 251,880.833 254,881.5C 255.019,880.313 256.186,879.313 257.5,878.5C 259.912,879.378 262.579,879.378 265.5,878.5C 271.102,880.714 276.935,882.047 283,882.5C 286.259,880.678 289.592,880.011 293,880.5C 296.267,880.895 299.267,881.895 302,883.5C 308.849,883.498 315.683,883.165 322.5,882.5C 337.526,884.756 352.193,885.422 366.5,884.5C 372.189,885.12 377.856,885.787 383.5,886.5C 389.015,886.802 394.349,886.469 399.5,885.5C 406.786,886.507 413.953,887.173 421,887.5C 421.804,886.196 422.971,885.529 424.5,885.5C 428.186,886.285 432.02,886.285 436,885.5C 436.5,886 437,886.5 437.5,887C 448.355,888.401 459.188,888.234 470,886.5C 472.884,888.459 475.884,889.126 479,888.5C 480.285,888.05 481.452,887.383 482.5,886.5C 483.192,887.025 483.692,887.692 484,888.5C 492.147,887.716 499.98,887.383 507.5,887.5C 509.5,888.167 511.5,888.833 513.5,889.5C 514.167,888.833 514.833,888.167 515.5,887.5C 524.066,888.808 532.566,888.808 541,887.5C 545.667,888.167 550.333,888.833 555,889.5C 587.649,889.64 620.816,889.64 654.5,889.5C 659.628,891.281 664.628,891.281 669.5,889.5C 688.174,890.159 707.341,890.159 727,889.5C 732.643,891.952 738.31,891.952 744,889.5C 791.189,890.478 838.689,890.812 886.5,890.5C 895.419,890.225 904.253,889.558 913,888.5C 929.405,889.378 945.572,889.711 961.5,889.5C 965.367,888.865 969.2,888.199 973,887.5C 986.422,888.448 999.588,888.448 1012.5,887.5C 1017.07,888.005 1021.57,888.672 1026,889.5C 1027,888.833 1028,888.167 1029,887.5C 1030.25,888.573 1031.58,888.573 1033,887.5C 1039.55,889.339 1046.22,889.339 1053,887.5C 1070.67,887.583 1088.67,887.583 1107,887.5C 1109.8,886.789 1112.63,886.122 1115.5,885.5C 1124.87,885.999 1134.03,886.332 1143,886.5C 1146.33,885.833 1149.67,885.167 1153,884.5C 1154.33,885.167 1155.67,885.833 1157,886.5C 1160.38,884.654 1163.88,884.321 1167.5,885.5C 1170.78,884.746 1174.11,884.246 1177.5,884C 1178.42,883.626 1179.25,883.126 1180,882.5C 1185.39,884.656 1190.72,884.656 1196,882.5C 1206.01,883.285 1216.01,883.618 1226,883.5C 1229.02,883.019 1231.85,882.019 1234.5,880.5C 1235.5,881.167 1236.5,881.833 1237.5,882.5C 1239.96,882.413 1242.46,882.413 1245,882.5C 1248.47,881.798 1251.97,881.131 1255.5,880.5C 1258.51,880.985 1261.51,881.319 1264.5,881.5C 1265.19,880.975 1265.69,880.308 1266,879.5C 1271.04,879.795 1276.04,880.129 1281,880.5C 1287.73,879.864 1294.4,878.864 1301,877.5C 1303.93,878.178 1306.76,878.512 1309.5,878.5C 1311.03,878.471 1312.2,877.804 1313,876.5C 1313.33,877.167 1313.67,877.833 1314,878.5C 1316.18,878.064 1318.68,877.564 1321.5,877C 1322.13,876.25 1322.63,875.416 1323,874.5C 1324.34,876.004 1326,877.004 1328,877.5C 1330,876.167 1332,876.167 1334,877.5C 1334.74,876.426 1335.74,875.759 1337,875.5C 1338.96,875.661 1340.96,875.994 1343,876.5C 1348.18,875.755 1353.35,874.755 1358.5,873.5C 1359.09,873.709 1359.59,874.043 1360,874.5C 1361.62,873.901 1363.12,873.234 1364.5,872.5C 1373.84,872.334 1383.17,872.5 1392.5,873C 1391.83,874 1391.17,875 1390.5,876C 1388.14,875.068 1385.97,875.568 1384,877.5C 1377.7,877.49 1371.7,877.49 1366,877.5C 1363.67,878.167 1361.33,878.833 1359,879.5C 1356.57,878.707 1354.23,878.374 1352,878.5C 1350.33,879.167 1348.67,879.833 1347,880.5C 1342.05,880.338 1337.05,880.005 1332,879.5C 1322.76,882.006 1313.93,882.673 1305.5,881.5C 1302.3,882.127 1299.13,882.794 1296,883.5C 1289.29,883.645 1282.46,883.311 1275.5,882.5C 1274.83,883.167 1274.17,883.833 1273.5,884.5C 1263.08,884.524 1252.58,884.524 1242,884.5C 1240.1,884.615 1238.44,885.282 1237,886.5C 1234.81,885.978 1232.48,885.978 1230,886.5C 1229.67,885.833 1229.33,885.167 1229,884.5C 1226.25,887.113 1223.42,887.113 1220.5,884.5C 1217,886.03 1213.33,887.03 1209.5,887.5C 1206.99,886.244 1204.49,886.244 1202,887.5C 1197.62,884.775 1193.62,885.109 1190,888.5C 1183.03,887.798 1176.37,887.464 1170,887.5C 1168.74,887.759 1167.74,888.426 1167,889.5C 1154.52,888.878 1142.35,888.544 1130.5,888.5C 1126.97,889.131 1123.47,889.798 1120,890.5C 1118.82,889.316 1117.32,888.649 1115.5,888.5C 1111.65,889.087 1107.82,889.753 1104,890.5C 1095.7,890.654 1087.37,890.321 1079,889.5C 1075,890.167 1071,890.833 1067,891.5C 1058.13,891.468 1049.29,891.134 1040.5,890.5C 1030.31,891.551 1020.48,892.217 1011,892.5C 1006.99,891.39 1002.99,890.39 999,889.5C 998.692,890.308 998.192,890.975 997.5,891.5C 990.492,891.34 983.659,891.007 977,890.5C 973.2,891.199 969.367,891.865 965.5,892.5C 963.941,891.926 962.441,891.26 961,890.5C 954.553,891.224 948.053,891.891 941.5,892.5C 937.504,892.158 933.504,891.825 929.5,891.5C 927.246,893.973 925.08,893.973 923,891.5C 908.555,892.777 893.721,892.777 878.5,891.5C 877.522,891.977 876.689,892.643 876,893.5C 863.687,893.41 851.854,893.077 840.5,892.5C 833.394,894.449 826.394,894.449 819.5,892.5C 816.893,891.966 814.393,892.633 812,894.5C 810.562,893.282 808.895,892.615 807,892.5C 800.088,892.716 793.088,893.383 786,894.5C 782.667,893.833 779.333,893.167 776,892.5C 769.264,892.781 762.597,892.781 756,892.5C 751.892,893.71 747.892,894.377 744,894.5C 740.928,893.57 737.761,892.903 734.5,892.5C 731.031,893.52 727.531,893.52 724,892.5C 719.572,892.844 715.238,893.511 711,894.5C 703.311,893.371 695.644,892.704 688,892.5C 686.187,892.827 684.52,893.493 683,894.5C 678.63,893.632 674.13,893.632 669.5,894.5C 668.5,894 667.5,893.5 666.5,893C 657.922,892.818 649.422,892.318 641,891.5C 639.915,892.293 638.748,892.96 637.5,893.5C 631.968,892.855 626.468,892.188 621,891.5C 612.803,892.818 604.637,892.818 596.5,891.5C 595.04,893.422 593.373,894.089 591.5,893.5C 588.949,892.217 586.449,891.884 584,892.5C 579.286,891.887 574.619,891.221 570,890.5C 559.349,891.514 548.516,891.514 537.5,890.5C 532.542,891.555 527.709,892.222 523,892.5C 519.587,890.29 516.254,889.957 513,891.5C 504.667,890.833 496.333,890.167 488,889.5C 486.055,890.692 484.055,890.692 482,889.5C 480.604,890.394 479.104,891.061 477.5,891.5C 473.129,891.22 468.629,890.554 464,889.5C 462.667,890.167 461.333,890.833 460,891.5C 457.239,890.472 454.406,890.472 451.5,891.5C 448.434,891.087 445.434,890.42 442.5,889.5C 431.036,889.843 420.203,890.176 410,890.5C 407.733,889.711 405.4,889.044 403,888.5C 400.213,889.517 397.38,889.684 394.5,889C 392.234,887.021 389.734,887.188 387,889.5C 382.507,888.497 377.507,888.497 372,889.5C 366.872,888.741 361.705,888.241 356.5,888C 354.726,886.244 353.059,886.244 351.5,888C 344.205,888.207 336.705,887.707 329,886.5C 322.373,886.55 315.707,886.883 309,887.5C 308.333,886.833 307.667,886.167 307,885.5C 298.581,885.238 290.248,885.571 282,886.5C 281,885.833 280,885.167 279,884.5C 275.303,884.896 271.637,885.229 268,885.5C 259.279,884.799 250.612,883.799 242,882.5C 235.188,883.428 228.521,883.761 222,883.5C 219.056,882.743 216.056,882.077 213,881.5C 205.771,881.911 198.271,881.911 190.5,881.5C 189.252,880.96 188.085,880.293 187,879.5C 184.347,879.682 181.68,880.015 179,880.5C 178.667,879.833 178.333,879.167 178,878.5C 175,879.833 172,879.833 169,878.5C 168.333,879.167 167.667,879.833 167,880.5C 164.776,878.946 162.276,877.946 159.5,877.5C 153.131,877.316 146.964,877.316 141,877.5C 134.681,876.08 128.181,874.58 121.5,873C 134.162,872.5 146.829,872.333 159.5,872.5 Z"/></g>
<g><path style="opacity:1" fill="#dddedf" d="M 1278.5,872.5 C 1277.87,873.947 1276.7,874.613 1275,874.5C 1272.63,872.954 1270.63,873.288 1269,875.5C 1267.33,875.167 1265.67,874.833 1264,874.5C 1263.12,876.513 1261.79,876.513 1260,874.5C 1259.03,876.878 1258.36,876.544 1258,873.5C 1257.61,874.428 1256.95,875.095 1256,875.5C 1254.23,874.498 1252.57,874.832 1251,876.5C 1248.41,876.997 1245.91,876.33 1243.5,874.5C 1242.09,875.624 1240.59,876.624 1239,877.5C 1234.39,876.599 1229.56,876.933 1224.5,878.5C 1222.57,877.233 1220.74,876.566 1219,876.5C 1217.45,878.146 1215.78,878.479 1214,877.5C 1212,878.167 1210,878.833 1208,879.5C 1206.42,879.507 1204.75,879.174 1203,878.5C 1201.5,880.756 1199.83,880.756 1198,878.5C 1196.2,878.913 1194.54,878.913 1193,878.5C 1191.33,879.167 1189.67,879.833 1188,880.5C 1182.88,879.929 1178.04,879.596 1173.5,879.5C 1171.12,880.012 1168.78,880.679 1166.5,881.5C 1162.48,881.714 1158.65,881.381 1155,880.5C 1148.86,881.186 1142.7,881.853 1136.5,882.5C 1133.74,882.619 1130.91,882.285 1128,881.5C 1125.33,882.167 1122.67,882.833 1120,883.5C 1113.45,882.993 1106.95,882.659 1100.5,882.5C 1094.48,883.123 1088.48,883.79 1082.5,884.5C 1079.49,883.757 1076.15,883.09 1072.5,882.5C 1060.68,883.454 1048.84,883.454 1037,882.5C 1032.42,884.487 1027.76,885.154 1023,884.5C 1016,885.167 1009,885.833 1002,886.5C 997.607,886.424 992.773,885.757 987.5,884.5C 982.184,885.609 976.684,885.609 971,884.5C 962.311,885.279 953.645,886.279 945,887.5C 941.147,887.231 937.147,886.564 933,885.5C 921.48,886.204 910.48,886.204 900,885.5C 894.075,886.956 888.075,887.956 882,888.5C 878.667,887.167 875.333,887.167 872,888.5C 870.933,887.809 869.766,887.309 868.5,887C 869.357,884.981 870.691,883.481 872.5,882.5C 874.412,880.343 876.079,878.009 877.5,875.5C 878.404,874.791 878.737,873.791 878.5,872.5C 1011.83,872.5 1145.17,872.5 1278.5,872.5 Z"/></g>
<g><path style="opacity:1" fill="#f3f3f3" d="M 867.5,872.5 C 867.753,876.415 867.087,880.081 865.5,883.5C 864.069,884.082 862.736,884.915 861.5,886C 793.833,886.667 726.167,886.667 658.5,886C 655.329,882.129 653.996,877.629 654.5,872.5C 725.5,872.5 796.5,872.5 867.5,872.5 Z"/></g>
<g><path style="opacity:1" fill="#b7b8bb" d="M 32.5,873.5 C 33.3917,875.903 32.725,878.069 30.5,880C 33.4865,882.935 33.8199,886.435 31.5,890.5C 32.0402,891.748 32.7069,892.915 33.5,894C 31.6354,898.291 30.4687,902.791 30,907.5C 29.0862,906.346 28.2529,906.513 27.5,908C 29.0762,908.44 30.4096,909.273 31.5,910.5C 36.3041,910.01 40.9708,910.01 45.5,910.5C 48.3325,908.353 50.9992,908.353 53.5,910.5C 54.5407,908.009 55.3741,908.009 56,910.5C 56.5,910 57,909.5 57.5,909C 60.4262,908.782 63.2595,908.282 66,907.5C 67.5874,908.727 68.9207,908.394 70,906.5C 70.6739,907.578 71.6739,908.245 73,908.5C 75,907.167 77,907.167 79,908.5C 80.3261,908.245 81.3261,907.578 82,906.5C 82.3333,907.167 82.6667,907.833 83,908.5C 85.2342,908.626 87.5676,908.293 90,907.5C 92.3389,910.105 94.6722,910.438 97,908.5C 100.206,910.124 102.872,909.458 105,906.5C 106.085,907.293 107.252,907.96 108.5,908.5C 110.371,907.233 112.204,907.233 114,908.5C 117.583,905.467 121.25,905.134 125,907.5C 128.921,905.094 132.921,905.094 137,907.5C 138.441,906.74 139.941,906.074 141.5,905.5C 145.162,905.957 148.662,906.957 152,908.5C 158.366,907.412 165.033,907.412 172,908.5C 174.806,907.759 177.473,906.759 180,905.5C 182.047,906.545 184.047,906.545 186,905.5C 186.945,905.905 187.612,906.572 188,907.5C 188.333,906.5 188.667,905.5 189,904.5C 190.154,905.743 191.488,906.743 193,907.5C 195.99,905.347 198.99,904.014 202,903.5C 202.368,904.91 203.201,905.91 204.5,906.5C 207.86,904.479 211.026,904.479 214,906.5C 215,905.833 216,905.167 217,904.5C 220.565,906.053 223.899,905.72 227,903.5C 227.333,904.167 227.667,904.833 228,905.5C 229.667,905.167 231.333,904.833 233,904.5C 234,905.167 235,905.833 236,906.5C 239.365,904.15 242.365,904.15 245,906.5C 245.667,905.833 246.333,905.167 247,904.5C 249.235,905.239 251.235,905.239 253,904.5C 253.333,903.833 253.667,903.167 254,902.5C 254.667,903.833 255.333,905.167 256,906.5C 256.519,905.484 257.353,904.818 258.5,904.5C 260.472,905.443 262.305,905.776 264,905.5C 266.112,903.078 268.112,903.078 270,905.5C 271.814,902.164 273.647,901.997 275.5,905C 282.683,906.547 289.683,905.713 296.5,902.5C 299.717,905.303 301.55,904.637 302,900.5C 298.869,901.206 295.702,901.873 292.5,902.5C 291.808,901.975 291.308,901.308 291,900.5C 289.796,901.471 289.296,902.471 289.5,903.5C 288.086,902.376 286.586,901.376 285,900.5C 282.224,900.426 279.391,900.759 276.5,901.5C 273.869,901.218 271.369,900.551 269,899.5C 267.333,900.167 265.667,900.833 264,901.5C 262.8,899.588 261.133,898.255 259,897.5C 257.326,898.676 255.826,900.01 254.5,901.5C 248.828,896.008 242.162,893.841 234.5,895C 233.667,894.167 232.833,893.333 232,892.5C 229.688,893.131 227.188,893.131 224.5,892.5C 222.566,892.901 221.066,893.901 220,895.5C 217.688,895.045 215.688,894.045 214,892.5C 212.097,892.694 210.263,892.694 208.5,892.5C 207.594,895.644 205.761,895.977 203,893.5C 199.361,893.47 195.694,893.804 192,894.5C 191,893.833 190,893.167 189,892.5C 186.405,892.003 183.905,892.67 181.5,894.5C 181.511,893.559 181.011,892.892 180,892.5C 177.946,893.079 175.946,893.412 174,893.5C 173.16,890.536 172.16,890.203 171,892.5C 167.164,889.07 163.498,889.07 160,892.5C 157.833,890.833 155.667,889.167 153.5,887.5C 152.833,887.833 152.167,888.167 151.5,888.5C 145.91,886.509 140.243,885.842 134.5,886.5C 133.117,889.076 132.283,888.742 132,885.5C 129,886.167 126,886.833 123,887.5C 121.686,886.687 120.519,885.687 119.5,884.5C 117.632,884.946 115.799,885.279 114,885.5C 109.613,883.146 103.779,881.146 96.5,879.5C 95.8076,880.025 95.3076,880.692 95,881.5C 91.4386,880.811 88.4386,879.144 86,876.5C 82.9669,877.999 81.1336,876.999 80.5,873.5C 82.1667,873.5 83.8333,873.5 85.5,873.5C 85.7751,875.758 86.7751,876.092 88.5,874.5C 89.6956,874.846 89.6956,875.346 88.5,876C 89.9931,877.368 91.4931,877.535 93,876.5C 96.9124,878.391 101.079,879.724 105.5,880.5C 106.086,880.291 106.586,879.957 107,879.5C 109.399,881.97 112.065,883.304 115,883.5C 126.4,883.1 137.733,883.1 149,883.5C 149.667,884.167 150.333,884.833 151,885.5C 154.445,885.523 157.945,885.19 161.5,884.5C 166.061,885.951 170.561,886.951 175,887.5C 178.971,887.046 182.971,886.713 187,886.5C 188.473,886.903 189.806,887.57 191,888.5C 192.851,886.219 194.518,886.219 196,888.5C 201.333,887.167 206.667,887.167 212,888.5C 219.023,885.339 225.523,886.005 231.5,890.5C 234.468,889.632 237.301,889.299 240,889.5C 241,890.167 242,890.833 243,891.5C 247.333,890.167 251.667,890.167 256,891.5C 259.594,890.673 263.261,890.007 267,889.5C 275.134,890.454 283.301,891.454 291.5,892.5C 292.167,891.833 292.833,891.167 293.5,890.5C 303.792,891.827 314.292,891.827 325,890.5C 326.57,891.358 328.237,892.025 330,892.5C 344.742,893.022 359.075,893.022 373,892.5C 385.13,894.063 396.796,894.396 408,893.5C 409.085,894.293 410.252,894.96 411.5,895.5C 415.261,893.303 418.428,893.636 421,896.5C 422.57,896.33 424.403,895.997 426.5,895.5C 426.75,896.922 427.583,897.922 429,898.5C 437.388,898.274 445.722,897.941 454,897.5C 455,898.167 456,898.833 457,899.5C 460.553,897.52 464.219,896.854 468,897.5C 468.308,898.308 468.808,898.975 469.5,899.5C 482.334,898.55 495.5,898.217 509,898.5C 509.804,899.804 510.971,900.471 512.5,900.5C 523.328,899.511 533.995,898.844 544.5,898.5C 546.311,899.739 548.311,900.406 550.5,900.5C 554.065,899.387 557.565,899.387 561,900.5C 562.086,898.153 563.419,898.153 565,900.5C 565.772,900.355 566.439,900.022 567,899.5C 568.621,900.657 570.455,901.49 572.5,902C 571.874,902.75 571.374,903.584 571,904.5C 569.235,905.239 567.235,905.239 565,904.5C 563.981,905.687 562.814,906.687 561.5,907.5C 557.825,907.003 554.325,906.003 551,904.5C 544.821,905.621 538.488,905.621 532,904.5C 526.571,906.44 521.238,906.44 516,904.5C 513.76,904.09 511.593,904.757 509.5,906.5C 501.399,905.968 493.566,905.635 486,905.5C 483.446,907.924 480.946,907.924 478.5,905.5C 470.636,906.152 462.803,906.818 455,907.5C 453.562,906.282 451.895,905.615 450,905.5C 447.213,904.918 444.547,905.584 442,907.5C 425.798,906.94 409.798,906.94 394,907.5C 391.189,907.297 388.522,906.631 386,905.5C 376.636,905.562 367.636,905.562 359,905.5C 354.289,907.56 349.456,907.894 344.5,906.5C 342.546,907.851 340.379,908.518 338,908.5C 304.699,909.096 271.699,909.096 239,908.5C 213.447,909.717 187.947,910.717 162.5,911.5C 156.256,911.49 150.089,911.157 144,910.5C 141.333,911.167 138.667,911.833 136,912.5C 114.728,912.043 93.2281,912.043 71.5,912.5C 67.1965,913.21 62.8632,913.71 58.5,914C 56.7536,914.471 55.087,915.138 53.5,916C 55.8437,916.183 58.1771,917.183 60.5,919C 95.4905,920.167 130.49,920.667 165.5,920.5C 167.735,920.205 169.735,920.539 171.5,921.5C 119.997,921.168 68.664,921.501 17.5,922.5C 10.6622,920.309 6.99551,915.642 6.5,908.5C 5.17793,908.67 4.01127,908.337 3,907.5C 2.17431,896.326 2.34097,885.326 3.5,874.5C 5.11723,873.962 6.7839,873.629 8.5,873.5C 8.3336,881.84 8.50027,890.173 9,898.5C 9.86241,900.087 10.5291,901.754 11,903.5C 15.3114,905.604 18.1447,904.437 19.5,900C 19.1641,891.614 18.8308,882.947 18.5,874C 23.1548,873.501 27.8215,873.334 32.5,873.5 Z"/></g>
<g><path style="opacity:1" fill="#b0b1b4" d="M 32.5,873.5 C 48.5,873.5 64.5,873.5 80.5,873.5C 81.1336,876.999 82.9669,877.999 86,876.5C 88.4386,879.144 91.4386,880.811 95,881.5C 95.3076,880.692 95.8076,880.025 96.5,879.5C 103.779,881.146 109.613,883.146 114,885.5C 115.799,885.279 117.632,884.946 119.5,884.5C 120.519,885.687 121.686,886.687 123,887.5C 126,886.833 129,886.167 132,885.5C 132.283,888.742 133.117,889.076 134.5,886.5C 140.243,885.842 145.91,886.509 151.5,888.5C 152.167,888.167 152.833,887.833 153.5,887.5C 155.667,889.167 157.833,890.833 160,892.5C 163.498,889.07 167.164,889.07 171,892.5C 172.16,890.203 173.16,890.536 174,893.5C 175.946,893.412 177.946,893.079 180,892.5C 181.011,892.892 181.511,893.559 181.5,894.5C 183.905,892.67 186.405,892.003 189,892.5C 190,893.167 191,893.833 192,894.5C 195.694,893.804 199.361,893.47 203,893.5C 205.761,895.977 207.594,895.644 208.5,892.5C 210.263,892.694 212.097,892.694 214,892.5C 215.688,894.045 217.688,895.045 220,895.5C 221.066,893.901 222.566,892.901 224.5,892.5C 227.188,893.131 229.688,893.131 232,892.5C 232.833,893.333 233.667,894.167 234.5,895C 242.162,893.841 248.828,896.008 254.5,901.5C 255.826,900.01 257.326,898.676 259,897.5C 261.133,898.255 262.8,899.588 264,901.5C 265.667,900.833 267.333,900.167 269,899.5C 271.369,900.551 273.869,901.218 276.5,901.5C 279.391,900.759 282.224,900.426 285,900.5C 286.586,901.376 288.086,902.376 289.5,903.5C 289.296,902.471 289.796,901.471 291,900.5C 291.308,901.308 291.808,901.975 292.5,902.5C 295.702,901.873 298.869,901.206 302,900.5C 301.55,904.637 299.717,905.303 296.5,902.5C 289.683,905.713 282.683,906.547 275.5,905C 273.647,901.997 271.814,902.164 270,905.5C 268.112,903.078 266.112,903.078 264,905.5C 262.305,905.776 260.472,905.443 258.5,904.5C 257.353,904.818 256.519,905.484 256,906.5C 255.333,905.167 254.667,903.833 254,902.5C 253.667,903.167 253.333,903.833 253,904.5C 251.235,905.239 249.235,905.239 247,904.5C 246.333,905.167 245.667,905.833 245,906.5C 242.365,904.15 239.365,904.15 236,906.5C 235,905.833 234,905.167 233,904.5C 231.333,904.833 229.667,905.167 228,905.5C 227.667,904.833 227.333,904.167 227,903.5C 223.899,905.72 220.565,906.053 217,904.5C 216,905.167 215,905.833 214,906.5C 211.026,904.479 207.86,904.479 204.5,906.5C 203.201,905.91 202.368,904.91 202,903.5C 198.99,904.014 195.99,905.347 193,907.5C 191.488,906.743 190.154,905.743 189,904.5C 188.667,905.5 188.333,906.5 188,907.5C 187.612,906.572 186.945,905.905 186,905.5C 184.047,906.545 182.047,906.545 180,905.5C 177.473,906.759 174.806,907.759 172,908.5C 165.033,907.412 158.366,907.412 152,908.5C 148.662,906.957 145.162,905.957 141.5,905.5C 139.941,906.074 138.441,906.74 137,907.5C 132.921,905.094 128.921,905.094 125,907.5C 121.25,905.134 117.583,905.467 114,908.5C 112.204,907.233 110.371,907.233 108.5,908.5C 107.252,907.96 106.085,907.293 105,906.5C 102.872,909.458 100.206,910.124 97,908.5C 94.6722,910.438 92.3389,910.105 90,907.5C 87.5676,908.293 85.2342,908.626 83,908.5C 82.6667,907.833 82.3333,907.167 82,906.5C 81.3261,907.578 80.3261,908.245 79,908.5C 77,907.167 75,907.167 73,908.5C 71.6739,908.245 70.6739,907.578 70,906.5C 68.9207,908.394 67.5874,908.727 66,907.5C 63.2595,908.282 60.4262,908.782 57.5,909C 57,909.5 56.5,910 56,910.5C 55.3741,908.009 54.5407,908.009 53.5,910.5C 50.9992,908.353 48.3325,908.353 45.5,910.5C 40.9708,910.01 36.3041,910.01 31.5,910.5C 30.4096,909.273 29.0762,908.44 27.5,908C 28.2529,906.513 29.0862,906.346 30,907.5C 30.4687,902.791 31.6354,898.291 33.5,894C 32.7069,892.915 32.0402,891.748 31.5,890.5C 33.8199,886.435 33.4865,882.935 30.5,880C 32.725,878.069 33.3917,875.903 32.5,873.5 Z"/></g>
<g><path style="opacity:1" fill="#bebfc1" d="M 1241.5,892.5 C 1240.81,893.774 1239.98,893.774 1239,892.5C 1238.67,893.167 1238.33,893.833 1238,894.5C 1231.57,893.685 1225.23,893.351 1219,893.5C 1216.91,895.907 1214.91,895.907 1213,893.5C 1210.88,894.227 1208.71,894.894 1206.5,895.5C 1195.21,895.393 1183.54,895.393 1171.5,895.5C 1170.25,896.04 1169.09,896.707 1168,897.5C 1164.53,896.798 1161.03,896.131 1157.5,895.5C 1152.22,897.318 1147.06,897.318 1142,895.5C 1135.17,895.922 1128.17,896.589 1121,897.5C 1116.32,896.036 1111.82,896.37 1107.5,898.5C 1104.91,896.811 1102.08,895.811 1099,895.5C 1096.78,896.532 1094.62,896.532 1092.5,895.5C 1088.83,896.167 1085.17,896.833 1081.5,897.5C 1080.83,897.167 1080.17,896.833 1079.5,896.5C 1077.53,897.953 1075.37,898.953 1073,899.5C 1070.15,899.259 1067.15,898.593 1064,897.5C 1062.61,898.815 1061.61,898.481 1061,896.5C 1056.47,896.77 1051.97,896.77 1047.5,896.5C 1045.39,897.034 1043.55,898.034 1042,899.5C 1041,898.833 1040,898.167 1039,897.5C 1038.19,900.982 1036.52,901.315 1034,898.5C 1029.03,899.628 1024.03,899.628 1019,898.5C 1016.73,899.289 1014.4,899.956 1012,900.5C 1001.06,899.912 989.73,899.579 978,899.5C 977.167,900.333 976.333,901.167 975.5,902C 976.868,904.185 978.868,905.351 981.5,905.5C 985.55,905.837 989.384,905.504 993,904.5C 995.124,905.227 997.291,905.894 999.5,906.5C 1002.78,905.196 1005.95,904.529 1009,904.5C 1009.33,905.167 1009.67,905.833 1010,906.5C 1019.39,905.069 1028.72,905.402 1038,907.5C 1038.33,906.833 1038.67,906.167 1039,905.5C 1046.35,906.578 1053.69,906.578 1061,905.5C 1063,906.167 1065,906.833 1067,907.5C 1067.33,906.833 1067.67,906.167 1068,905.5C 1069.8,906.767 1071.63,906.767 1073.5,905.5C 1075.06,906.074 1076.56,906.74 1078,907.5C 1101.16,907.386 1124.33,907.386 1147.5,907.5C 1154.08,907.11 1160.58,906.444 1167,905.5C 1168.33,906.167 1169.67,906.833 1171,907.5C 1179.02,906.867 1187.19,906.534 1195.5,906.5C 1196.62,907.544 1197.96,908.21 1199.5,908.5C 1202.62,908.336 1205.78,908.003 1209,907.5C 1211,908.167 1213,908.833 1215,909.5C 1239.59,908.677 1264.43,908.344 1289.5,908.5C 1296.14,909.249 1302.8,909.916 1309.5,910.5C 1320.8,910.177 1332.13,909.844 1343.5,909.5C 1347.63,910.109 1351.63,910.776 1355.5,911.5C 1310.26,911.707 1265.43,912.041 1221,912.5C 1172.01,910.965 1123.01,909.965 1074,909.5C 1061.21,909.374 1048.37,909.707 1035.5,910.5C 1022.86,909.794 1010.19,909.128 997.5,908.5C 855.704,908.978 714.537,908.978 574,908.5C 512.096,909.487 450.43,910.487 389,911.5C 361.323,910.382 333.656,910.715 306,912.5C 294.972,911.756 283.805,911.423 272.5,911.5C 256.153,912.119 239.82,912.786 223.5,913.5C 212.841,913.26 202.175,912.927 191.5,912.5C 187.126,913.022 182.793,913.689 178.5,914.5C 169.803,914.166 160.969,913.833 152,913.5C 143.616,914.059 135.282,915.059 127,916.5C 123.557,915.633 120.224,915.299 117,915.5C 116.667,916.167 116.333,916.833 116,917.5C 113.448,914.806 112.281,915.473 112.5,919.5C 130.341,919.17 148.008,919.503 165.5,920.5C 130.49,920.667 95.4905,920.167 60.5,919C 58.1771,917.183 55.8437,916.183 53.5,916C 55.087,915.138 56.7536,914.471 58.5,914C 62.8632,913.71 67.1965,913.21 71.5,912.5C 93.2281,912.043 114.728,912.043 136,912.5C 138.667,911.833 141.333,911.167 144,910.5C 150.089,911.157 156.256,911.49 162.5,911.5C 187.947,910.717 213.447,909.717 239,908.5C 271.699,909.096 304.699,909.096 338,908.5C 340.379,908.518 342.546,907.851 344.5,906.5C 349.456,907.894 354.289,907.56 359,905.5C 367.636,905.562 376.636,905.562 386,905.5C 388.522,906.631 391.189,907.297 394,907.5C 409.798,906.94 425.798,906.94 442,907.5C 444.547,905.584 447.213,904.918 450,905.5C 451.895,905.615 453.562,906.282 455,907.5C 462.803,906.818 470.636,906.152 478.5,905.5C 480.946,907.924 483.446,907.924 486,905.5C 493.566,905.635 501.399,905.968 509.5,906.5C 511.593,904.757 513.76,904.09 516,904.5C 521.238,906.44 526.571,906.44 532,904.5C 538.488,905.621 544.821,905.621 551,904.5C 554.325,906.003 557.825,907.003 561.5,907.5C 562.814,906.687 563.981,905.687 565,904.5C 567.235,905.239 569.235,905.239 571,904.5C 571.374,903.584 571.874,902.75 572.5,902C 570.455,901.49 568.621,900.657 567,899.5C 566.439,900.022 565.772,900.355 565,900.5C 563.419,898.153 562.086,898.153 561,900.5C 557.565,899.387 554.065,899.387 550.5,900.5C 548.311,900.406 546.311,899.739 544.5,898.5C 533.995,898.844 523.328,899.511 512.5,900.5C 510.971,900.471 509.804,899.804 509,898.5C 495.5,898.217 482.334,898.55 469.5,899.5C 468.808,898.975 468.308,898.308 468,897.5C 464.219,896.854 460.553,897.52 457,899.5C 456,898.833 455,898.167 454,897.5C 445.722,897.941 437.388,898.274 429,898.5C 427.583,897.922 426.75,896.922 426.5,895.5C 431.311,895.818 436.144,895.818 441,895.5C 444.667,896.167 448.333,896.833 452,897.5C 453.333,896.833 454.667,896.167 456,895.5C 475.194,895.778 494.194,895.778 513,895.5C 519.333,896.167 525.667,896.833 532,897.5C 533.333,896.833 534.667,896.167 536,895.5C 538.333,896.833 540.667,896.833 543,895.5C 543.388,896.428 544.055,897.095 545,897.5C 553.602,896.741 562.102,896.407 570.5,896.5C 574.617,896.817 578.451,897.817 582,899.5C 582.667,898.833 583.333,898.167 584,897.5C 588.941,897.297 593.941,897.63 599,898.5C 606.049,897.877 613.049,896.877 620,895.5C 621.313,896.573 622.813,897.24 624.5,897.5C 626.387,895.867 627.887,896.2 629,898.5C 640.229,897.186 651.229,897.186 662,898.5C 662.691,896.109 663.691,896.109 665,898.5C 673.954,898.639 683.121,898.305 692.5,897.5C 693.167,898.5 693.833,899.5 694.5,900.5C 699.763,899.198 704.93,898.531 710,898.5C 710.945,898.905 711.612,899.572 712,900.5C 714.667,897.833 717.333,897.833 720,900.5C 722.251,898.636 724.918,897.636 728,897.5C 745.947,898.253 763.447,898.253 780.5,897.5C 783.777,898.254 787.11,898.754 790.5,899C 791,899.5 791.5,900 792,900.5C 795.131,899.794 798.298,899.127 801.5,898.5C 802.167,899.167 802.833,899.833 803.5,900.5C 806.348,898.85 808.848,899.184 811,901.5C 811.333,900.833 811.667,900.167 812,899.5C 825.386,899.751 838.886,900.084 852.5,900.5C 855.039,899.885 857.539,899.218 860,898.5C 863.209,898.938 866.542,898.938 870,898.5C 870.333,899.167 870.667,899.833 871,900.5C 872.333,899.833 873.667,899.167 875,898.5C 883.322,898.568 891.822,898.901 900.5,899.5C 901.192,898.975 901.692,898.308 902,897.5C 902.519,898.516 903.353,899.182 904.5,899.5C 914.131,898.236 923.964,898.236 934,899.5C 938.537,897.523 943.203,897.189 948,898.5C 951.839,896.212 955.839,895.879 960,897.5C 964.513,895.996 969.18,895.33 974,895.5C 1008.19,894.786 1042.85,894.786 1078,895.5C 1080.17,895.333 1082.33,895.167 1084.5,895C 1085.68,893.086 1086.68,893.252 1087.5,895.5C 1090.03,894.212 1092.53,894.212 1095,895.5C 1097.87,893.575 1100.53,893.575 1103,895.5C 1106,894.167 1109,894.167 1112,895.5C 1114.33,894.833 1116.67,894.167 1119,893.5C 1127.23,894.286 1135.39,894.286 1143.5,893.5C 1146.58,893.32 1149.41,893.986 1152,895.5C 1155.33,894.833 1158.67,894.167 1162,893.5C 1170.48,893.818 1179.15,894.151 1188,894.5C 1192.79,892.36 1197.79,891.027 1203,890.5C 1204.31,892.891 1205.31,892.891 1206,890.5C 1214.43,891.421 1222.43,891.421 1230,890.5C 1234.02,890.892 1237.86,891.558 1241.5,892.5 Z"/></g>
<g><path style="opacity:1" fill="#b7b8bb" d="M 1435.5,873.5 C 1439.83,873.5 1444.17,873.5 1448.5,873.5C 1448.33,874.822 1448.66,875.989 1449.5,877C 1448.11,878.171 1447.27,879.671 1447,881.5C 1446.44,880.978 1445.77,880.645 1445,880.5C 1442.84,881.244 1440.84,882.244 1439,883.5C 1437.86,883.089 1436.69,882.756 1435.5,882.5C 1432.9,884.418 1430.4,885.751 1428,886.5C 1427.33,885.833 1426.67,885.167 1426,884.5C 1424.1,887.13 1422.27,887.463 1420.5,885.5C 1419.1,887.597 1417.26,887.93 1415,886.5C 1411.24,886.814 1407.74,887.814 1404.5,889.5C 1401.75,888.895 1399.09,888.562 1396.5,888.5C 1394.91,889.01 1393.75,890.01 1393,891.5C 1391.43,890.939 1390.1,891.606 1389,893.5C 1387.66,892.786 1386.32,893.12 1385,894.5C 1381.82,893.018 1378.65,892.684 1375.5,893.5C 1375.65,894.552 1375.48,895.552 1375,896.5C 1373.16,895.289 1372.32,893.956 1372.5,892.5C 1371.61,893.325 1371.28,894.325 1371.5,895.5C 1370.5,895.5 1369.5,895.5 1368.5,895.5C 1368.65,894.448 1368.48,893.448 1368,892.5C 1366.76,894.833 1365.09,895.5 1363,894.5C 1362.67,895.167 1362.33,895.833 1362,896.5C 1361.01,895.061 1359.68,894.061 1358,893.5C 1355.99,896.258 1353.99,896.592 1352,894.5C 1350.49,896.957 1349.15,896.957 1348,894.5C 1347.04,895.579 1346.21,896.745 1345.5,898C 1343.69,898.614 1343.35,898.281 1344.5,897C 1342.63,896.289 1341.13,896.789 1340,898.5C 1339.31,897.975 1338.81,897.308 1338.5,896.5C 1339.33,895.549 1339.49,894.549 1339,893.5C 1337.17,894.298 1335.33,895.298 1333.5,896.5C 1330.7,894.98 1328.53,895.647 1327,898.5C 1326.31,897.643 1325.48,896.977 1324.5,896.5C 1322.36,896.638 1320.2,896.638 1318,896.5C 1316.71,896.95 1315.55,897.617 1314.5,898.5C 1313.81,897.975 1313.31,897.308 1313,896.5C 1311.38,897.641 1309.55,898.474 1307.5,899C 1309.93,900.087 1309.6,900.587 1306.5,900.5C 1306.5,899.5 1306.5,898.5 1306.5,897.5C 1304.23,897.141 1302.4,897.808 1301,899.5C 1299.2,895.488 1298.2,895.822 1298,900.5C 1294,895.672 1288.83,894.839 1282.5,898C 1281.81,899.067 1281.31,900.234 1281,901.5C 1280.17,900.5 1279.33,899.5 1278.5,898.5C 1276.84,900.801 1275,900.801 1273,898.5C 1271.32,899.061 1269.99,900.061 1269,901.5C 1267.3,900.594 1265.47,900.261 1263.5,900.5C 1263.65,899.448 1263.48,898.448 1263,897.5C 1260.96,898.102 1259.13,899.102 1257.5,900.5C 1256.2,899.282 1255.2,899.615 1254.5,901.5C 1253.81,900.975 1253.31,900.308 1253,899.5C 1250.85,901.816 1248.35,902.15 1245.5,900.5C 1243.65,901.242 1242.98,902.242 1243.5,903.5C 1242.12,902.024 1240.45,901.024 1238.5,900.5C 1235.81,900.082 1233.14,900.582 1230.5,902C 1232.13,904.451 1233.96,904.951 1236,903.5C 1236.5,904 1237,904.5 1237.5,905C 1241.8,905.374 1245.96,906.207 1250,907.5C 1251.44,906.74 1252.94,906.074 1254.5,905.5C 1258.78,906.41 1263.11,907.077 1267.5,907.5C 1269.93,907.596 1272.09,906.93 1274,905.5C 1275.09,906.293 1276.25,906.96 1277.5,907.5C 1288.23,906.767 1299.07,906.767 1310,907.5C 1312.8,905.053 1315.47,904.72 1318,906.5C 1319.76,906.025 1321.43,905.358 1323,904.5C 1324.67,905.167 1326.33,905.833 1328,906.5C 1332.39,905.336 1337.06,905.336 1342,906.5C 1342.33,905.833 1342.67,905.167 1343,904.5C 1344.33,905.167 1345.67,905.833 1347,906.5C 1349.22,906.294 1351.39,905.961 1353.5,905.5C 1355.88,907.769 1358.38,907.769 1361,905.5C 1362.19,906.43 1363.53,907.097 1365,907.5C 1366.42,906.427 1367.75,906.427 1369,907.5C 1370.31,905.109 1371.31,905.109 1372,907.5C 1373.15,905.043 1374.49,905.043 1376,907.5C 1377.82,905.355 1379.32,905.355 1380.5,907.5C 1381.48,907.023 1382.31,906.357 1383,905.5C 1383.67,906.578 1384.67,907.245 1386,907.5C 1389.55,907.067 1393.22,907.067 1397,907.5C 1399.08,906.983 1401.08,906.316 1403,905.5C 1404,906.167 1405,906.833 1406,907.5C 1407.4,906.57 1408.9,906.57 1410.5,907.5C 1411.67,907.081 1412.67,906.415 1413.5,905.5C 1415.07,906.309 1416.74,906.643 1418.5,906.5C 1418.5,907.5 1418.5,908.5 1418.5,909.5C 1423.23,908.539 1428.07,908.872 1433,910.5C 1438.17,910.167 1443.5,910.167 1449,910.5C 1451.95,910.091 1454.61,909.091 1457,907.5C 1458.67,908.833 1460.33,908.833 1462,907.5C 1462.33,908.5 1462.67,909.5 1463,910.5C 1467,910.973 1471,910.306 1475,908.5C 1475.69,909.357 1476.52,910.023 1477.5,910.5C 1480.26,910.619 1483.09,910.285 1486,909.5C 1487.6,913.085 1489.77,913.418 1492.5,910.5C 1493.09,910.709 1493.59,911.043 1494,911.5C 1494.46,910.256 1493.96,909.423 1492.5,909C 1493.81,907.605 1493.48,906.605 1491.5,906C 1493.03,905.3 1494.03,904.134 1494.5,902.5C 1492.45,897.853 1492.45,893.353 1494.5,889C 1493.76,887.215 1493.09,885.382 1492.5,883.5C 1494.29,880.444 1494.96,877.111 1494.5,873.5C 1497.17,873.5 1499.83,873.5 1502.5,873.5C 1501.68,882.399 1501.35,891.399 1501.5,900.5C 1501.98,901.931 1502.64,903.264 1503.5,904.5C 1509.9,906.277 1514.07,903.944 1516,897.5C 1516.5,889.507 1516.67,881.507 1516.5,873.5C 1518.5,873.5 1520.5,873.5 1522.5,873.5C 1524,873.989 1525.33,874.655 1526.5,875.5C 1527.66,882.655 1527.82,889.988 1527,897.5C 1524.56,902.22 1523.06,907.22 1522.5,912.5C 1522.5,910.833 1522.5,909.167 1522.5,907.5C 1522.82,904.102 1522.49,900.768 1521.5,897.5C 1520.73,899.813 1520.06,902.146 1519.5,904.5C 1517.48,906.69 1515.64,909.023 1514,911.5C 1509.75,913.811 1505.58,916.311 1501.5,919C 1486.86,920.184 1472.2,920.851 1457.5,921C 1430.17,921.5 1402.84,921.667 1375.5,921.5C 1400.67,920.711 1426.01,919.878 1451.5,919C 1449.01,918.374 1449.01,917.541 1451.5,916.5C 1446.16,915.099 1440.83,914.265 1435.5,914C 1408.94,914.062 1382.28,913.228 1355.5,911.5C 1351.63,910.776 1347.63,910.109 1343.5,909.5C 1332.13,909.844 1320.8,910.177 1309.5,910.5C 1302.8,909.916 1296.14,909.249 1289.5,908.5C 1264.43,908.344 1239.59,908.677 1215,909.5C 1213,908.833 1211,908.167 1209,907.5C 1205.78,908.003 1202.62,908.336 1199.5,908.5C 1197.96,908.21 1196.62,907.544 1195.5,906.5C 1187.19,906.534 1179.02,906.867 1171,907.5C 1169.67,906.833 1168.33,906.167 1167,905.5C 1160.58,906.444 1154.08,907.11 1147.5,907.5C 1124.33,907.386 1101.16,907.386 1078,907.5C 1076.56,906.74 1075.06,906.074 1073.5,905.5C 1071.63,906.767 1069.8,906.767 1068,905.5C 1067.67,906.167 1067.33,906.833 1067,907.5C 1065,906.833 1063,906.167 1061,905.5C 1053.69,906.578 1046.35,906.578 1039,905.5C 1038.67,906.167 1038.33,906.833 1038,907.5C 1028.72,905.402 1019.39,905.069 1010,906.5C 1009.67,905.833 1009.33,905.167 1009,904.5C 1005.95,904.529 1002.78,905.196 999.5,906.5C 997.291,905.894 995.124,905.227 993,904.5C 989.384,905.504 985.55,905.837 981.5,905.5C 978.868,905.351 976.868,904.185 975.5,902C 976.333,901.167 977.167,900.333 978,899.5C 989.73,899.579 1001.06,899.912 1012,900.5C 1014.4,899.956 1016.73,899.289 1019,898.5C 1024.03,899.628 1029.03,899.628 1034,898.5C 1036.52,901.315 1038.19,900.982 1039,897.5C 1040,898.167 1041,898.833 1042,899.5C 1043.55,898.034 1045.39,897.034 1047.5,896.5C 1051.97,896.77 1056.47,896.77 1061,896.5C 1061.61,898.481 1062.61,898.815 1064,897.5C 1067.15,898.593 1070.15,899.259 1073,899.5C 1075.37,898.953 1077.53,897.953 1079.5,896.5C 1080.17,896.833 1080.83,897.167 1081.5,897.5C 1085.17,896.833 1088.83,896.167 1092.5,895.5C 1094.62,896.532 1096.78,896.532 1099,895.5C 1102.08,895.811 1104.91,896.811 1107.5,898.5C 1111.82,896.37 1116.32,896.036 1121,897.5C 1128.17,896.589 1135.17,895.922 1142,895.5C 1147.06,897.318 1152.22,897.318 1157.5,895.5C 1161.03,896.131 1164.53,896.798 1168,897.5C 1169.09,896.707 1170.25,896.04 1171.5,895.5C 1183.54,895.393 1195.21,895.393 1206.5,895.5C 1208.71,894.894 1210.88,894.227 1213,893.5C 1214.91,895.907 1216.91,895.907 1219,893.5C 1225.23,893.351 1231.57,893.685 1238,894.5C 1238.33,893.833 1238.67,893.167 1239,892.5C 1239.98,893.774 1240.81,893.774 1241.5,892.5C 1244.93,891.699 1248.43,891.032 1252,890.5C 1260.17,891.303 1268.5,890.636 1277,888.5C 1278.15,890.512 1279.32,890.678 1280.5,889C 1283.89,888.754 1287.22,888.254 1290.5,887.5C 1293.05,887.706 1295.55,888.039 1298,888.5C 1301,887.833 1304,887.167 1307,886.5C 1309.74,886.261 1312.57,886.595 1315.5,887.5C 1317.93,887.596 1320.09,886.93 1322,885.5C 1324.1,885.624 1326.43,885.958 1329,886.5C 1344.25,885.509 1359.59,884.176 1375,882.5C 1375.33,882.833 1375.67,883.167 1376,883.5C 1381.89,882.005 1387.72,881.005 1393.5,880.5C 1398.07,881.266 1402.73,881.266 1407.5,880.5C 1409.17,879.833 1410.83,879.167 1412.5,878.5C 1414.9,879.512 1417.07,880.179 1419,880.5C 1422.67,878.833 1426.33,877.167 1430,875.5C 1430.33,875.833 1430.67,876.167 1431,876.5C 1432.41,875.219 1433.91,874.219 1435.5,873.5 Z"/></g>
<g><path style="opacity:0.894" fill="#3f3f3f" d="M 1526.5,875.5 C 1526.81,880.267 1526.31,884.934 1525,889.5C 1524.83,887.167 1524.67,884.833 1524.5,882.5C 1524.53,879.731 1525.2,877.397 1526.5,875.5 Z"/></g>
<g><path style="opacity:1" fill="#b0b1b3" d="M 1448.5,873.5 C 1463.83,873.5 1479.17,873.5 1494.5,873.5C 1494.96,877.111 1494.29,880.444 1492.5,883.5C 1493.09,885.382 1493.76,887.215 1494.5,889C 1492.45,893.353 1492.45,897.853 1494.5,902.5C 1494.03,904.134 1493.03,905.3 1491.5,906C 1493.48,906.605 1493.81,907.605 1492.5,909C 1493.96,909.423 1494.46,910.256 1494,911.5C 1493.59,911.043 1493.09,910.709 1492.5,910.5C 1489.77,913.418 1487.6,913.085 1486,909.5C 1483.09,910.285 1480.26,910.619 1477.5,910.5C 1476.52,910.023 1475.69,909.357 1475,908.5C 1471,910.306 1467,910.973 1463,910.5C 1462.67,909.5 1462.33,908.5 1462,907.5C 1460.33,908.833 1458.67,908.833 1457,907.5C 1454.61,909.091 1451.95,910.091 1449,910.5C 1443.5,910.167 1438.17,910.167 1433,910.5C 1428.07,908.872 1423.23,908.539 1418.5,909.5C 1418.5,908.5 1418.5,907.5 1418.5,906.5C 1416.74,906.643 1415.07,906.309 1413.5,905.5C 1412.67,906.415 1411.67,907.081 1410.5,907.5C 1408.9,906.57 1407.4,906.57 1406,907.5C 1405,906.833 1404,906.167 1403,905.5C 1401.08,906.316 1399.08,906.983 1397,907.5C 1393.22,907.067 1389.55,907.067 1386,907.5C 1384.67,907.245 1383.67,906.578 1383,905.5C 1382.31,906.357 1381.48,907.023 1380.5,907.5C 1379.32,905.355 1377.82,905.355 1376,907.5C 1374.49,905.043 1373.15,905.043 1372,907.5C 1371.31,905.109 1370.31,905.109 1369,907.5C 1367.75,906.427 1366.42,906.427 1365,907.5C 1363.53,907.097 1362.19,906.43 1361,905.5C 1358.38,907.769 1355.88,907.769 1353.5,905.5C 1351.39,905.961 1349.22,906.294 1347,906.5C 1345.67,905.833 1344.33,905.167 1343,904.5C 1342.67,905.167 1342.33,905.833 1342,906.5C 1337.06,905.336 1332.39,905.336 1328,906.5C 1326.33,905.833 1324.67,905.167 1323,904.5C 1321.43,905.358 1319.76,906.025 1318,906.5C 1315.47,904.72 1312.8,905.053 1310,907.5C 1299.07,906.767 1288.23,906.767 1277.5,907.5C 1276.25,906.96 1275.09,906.293 1274,905.5C 1272.09,906.93 1269.93,907.596 1267.5,907.5C 1263.11,907.077 1258.78,906.41 1254.5,905.5C 1252.94,906.074 1251.44,906.74 1250,907.5C 1245.96,906.207 1241.8,905.374 1237.5,905C 1237,904.5 1236.5,904 1236,903.5C 1233.96,904.951 1232.13,904.451 1230.5,902C 1233.14,900.582 1235.81,900.082 1238.5,900.5C 1240.45,901.024 1242.12,902.024 1243.5,903.5C 1242.98,902.242 1243.65,901.242 1245.5,900.5C 1248.35,902.15 1250.85,901.816 1253,899.5C 1253.31,900.308 1253.81,900.975 1254.5,901.5C 1255.2,899.615 1256.2,899.282 1257.5,900.5C 1259.13,899.102 1260.96,898.102 1263,897.5C 1263.48,898.448 1263.65,899.448 1263.5,900.5C 1265.47,900.261 1267.3,900.594 1269,901.5C 1269.99,900.061 1271.32,899.061 1273,898.5C 1275,900.801 1276.84,900.801 1278.5,898.5C 1279.33,899.5 1280.17,900.5 1281,901.5C 1281.31,900.234 1281.81,899.067 1282.5,898C 1288.83,894.839 1294,895.672 1298,900.5C 1298.2,895.822 1299.2,895.488 1301,899.5C 1302.4,897.808 1304.23,897.141 1306.5,897.5C 1306.5,898.5 1306.5,899.5 1306.5,900.5C 1309.6,900.587 1309.93,900.087 1307.5,899C 1309.55,898.474 1311.38,897.641 1313,896.5C 1313.31,897.308 1313.81,897.975 1314.5,898.5C 1315.55,897.617 1316.71,896.95 1318,896.5C 1320.2,896.638 1322.36,896.638 1324.5,896.5C 1325.48,896.977 1326.31,897.643 1327,898.5C 1328.53,895.647 1330.7,894.98 1333.5,896.5C 1335.33,895.298 1337.17,894.298 1339,893.5C 1339.49,894.549 1339.33,895.549 1338.5,896.5C 1338.81,897.308 1339.31,897.975 1340,898.5C 1341.13,896.789 1342.63,896.289 1344.5,897C 1343.35,898.281 1343.69,898.614 1345.5,898C 1346.21,896.745 1347.04,895.579 1348,894.5C 1349.15,896.957 1350.49,896.957 1352,894.5C 1353.99,896.592 1355.99,896.258 1358,893.5C 1359.68,894.061 1361.01,895.061 1362,896.5C 1362.33,895.833 1362.67,895.167 1363,894.5C 1365.09,895.5 1366.76,894.833 1368,892.5C 1368.48,893.448 1368.65,894.448 1368.5,895.5C 1369.5,895.5 1370.5,895.5 1371.5,895.5C 1371.28,894.325 1371.61,893.325 1372.5,892.5C 1372.32,893.956 1373.16,895.289 1375,896.5C 1375.48,895.552 1375.65,894.552 1375.5,893.5C 1378.65,892.684 1381.82,893.018 1385,894.5C 1386.32,893.12 1387.66,892.786 1389,893.5C 1390.1,891.606 1391.43,890.939 1393,891.5C 1393.75,890.01 1394.91,889.01 1396.5,888.5C 1399.09,888.562 1401.75,888.895 1404.5,889.5C 1407.74,887.814 1411.24,886.814 1415,886.5C 1417.26,887.93 1419.1,887.597 1420.5,885.5C 1422.27,887.463 1424.1,887.13 1426,884.5C 1426.67,885.167 1427.33,885.833 1428,886.5C 1430.4,885.751 1432.9,884.418 1435.5,882.5C 1436.69,882.756 1437.86,883.089 1439,883.5C 1440.84,882.244 1442.84,881.244 1445,880.5C 1445.77,880.645 1446.44,880.978 1447,881.5C 1447.27,879.671 1448.11,878.171 1449.5,877C 1448.66,875.989 1448.33,874.822 1448.5,873.5 Z"/></g>
<g><path style="opacity:1" fill="#c9c9cb" d="M 1355.5,911.5 C 1382.28,913.228 1408.94,914.062 1435.5,914C 1440.83,914.265 1446.16,915.099 1451.5,916.5C 1449.01,917.541 1449.01,918.374 1451.5,919C 1426.01,919.878 1400.67,920.711 1375.5,921.5C 1291.5,921.5 1207.5,921.5 1123.5,921.5C 806.167,921.5 488.833,921.5 171.5,921.5C 169.735,920.539 167.735,920.205 165.5,920.5C 148.008,919.503 130.341,919.17 112.5,919.5C 112.281,915.473 113.448,914.806 116,917.5C 116.333,916.833 116.667,916.167 117,915.5C 120.224,915.299 123.557,915.633 127,916.5C 135.282,915.059 143.616,914.059 152,913.5C 160.969,913.833 169.803,914.166 178.5,914.5C 182.793,913.689 187.126,913.022 191.5,912.5C 202.175,912.927 212.841,913.26 223.5,913.5C 239.82,912.786 256.153,912.119 272.5,911.5C 283.805,911.423 294.972,911.756 306,912.5C 333.656,910.715 361.323,910.382 389,911.5C 450.43,910.487 512.096,909.487 574,908.5C 714.537,908.978 855.704,908.978 997.5,908.5C 1010.19,909.128 1022.86,909.794 1035.5,910.5C 1048.37,909.707 1061.21,909.374 1074,909.5C 1123.01,909.965 1172.01,910.965 1221,912.5C 1265.43,912.041 1310.26,911.707 1355.5,911.5 Z"/></g>
<g><path style="opacity:1" fill="#d6d6d8" d="M 1251.5,919.5 C 1142.52,920.487 1033.52,920.821 924.5,920.5C 967.665,919.667 1011,919.167 1054.5,919C 1053.3,918.346 1053.3,917.846 1054.5,917.5C 1057.4,920.249 1060.06,920.082 1062.5,917C 1061.83,916.667 1061.17,916.333 1060.5,916C 1020.63,914.667 980.46,913.833 940,913.5C 911.067,913.628 882.067,913.961 853,914.5C 845.333,913.833 837.667,913.167 830,912.5C 798.408,913.475 766.741,913.475 735,912.5C 703.958,913.159 672.958,913.826 642,914.5C 619.008,913.998 596.175,913.664 573.5,913.5C 544.838,914.225 516.172,914.725 487.5,915C 482.914,915.197 478.414,915.697 474,916.5C 467.536,916.413 461.036,916.08 454.5,915.5C 452.933,915.477 451.6,915.977 450.5,917C 451.784,917.684 452.951,917.517 454,916.5C 454.456,917.744 453.956,918.577 452.5,919C 501.002,919.167 549.335,919.667 597.5,920.5C 539.833,920.5 482.167,920.5 424.5,920.5C 386.098,919.83 347.598,919.164 309,918.5C 308.107,919.081 307.107,919.415 306,919.5C 302.72,918.025 299.22,917.192 295.5,917C 297.218,916.654 298.885,916.154 300.5,915.5C 306.16,915.726 311.827,916.06 317.5,916.5C 327.142,915.227 336.808,914.227 346.5,913.5C 378.765,914.325 410.932,914.658 443,914.5C 446.659,913.056 450.492,912.39 454.5,912.5C 474.447,912.168 494.28,912.501 514,913.5C 532.82,912.814 551.653,912.147 570.5,911.5C 689.847,912.104 809.68,912.104 930,911.5C 946.333,912.167 962.667,912.833 979,913.5C 986.815,911.527 994.815,911.527 1003,913.5C 1047.96,913.19 1092.79,913.19 1137.5,913.5C 1158.83,914.072 1180.16,914.572 1201.5,915C 1202,915.5 1202.5,916 1203,916.5C 1205.21,915.24 1207.71,914.574 1210.5,914.5C 1216.27,915.607 1221.77,915.607 1227,914.5C 1231.33,915.167 1235.67,915.833 1240,916.5C 1245.92,915.687 1251.75,915.52 1257.5,916C 1260.28,916.149 1260.78,916.983 1259,918.5C 1257.77,917.892 1256.44,917.559 1255,917.5C 1253.32,917.608 1252.15,918.275 1251.5,919.5 Z"/></g>
<g><path style="opacity:1" fill="#d0d0d2" d="M 1251.5,919.5 C 1252.15,918.275 1253.32,917.608 1255,917.5C 1256.44,917.559 1257.77,917.892 1259,918.5C 1260.78,916.983 1260.28,916.149 1257.5,916C 1251.75,915.52 1245.92,915.687 1240,916.5C 1235.67,915.833 1231.33,915.167 1227,914.5C 1221.77,915.607 1216.27,915.607 1210.5,914.5C 1207.71,914.574 1205.21,915.24 1203,916.5C 1202.5,916 1202,915.5 1201.5,915C 1180.16,914.572 1158.83,914.072 1137.5,913.5C 1092.79,913.19 1047.96,913.19 1003,913.5C 994.815,911.527 986.815,911.527 979,913.5C 962.667,912.833 946.333,912.167 930,911.5C 809.68,912.104 689.847,912.104 570.5,911.5C 551.653,912.147 532.82,912.814 514,913.5C 494.28,912.501 474.447,912.168 454.5,912.5C 450.492,912.39 446.659,913.056 443,914.5C 410.932,914.658 378.765,914.325 346.5,913.5C 336.808,914.227 327.142,915.227 317.5,916.5C 311.827,916.06 306.16,915.726 300.5,915.5C 298.885,916.154 297.218,916.654 295.5,917C 299.22,917.192 302.72,918.025 306,919.5C 307.107,919.415 308.107,919.081 309,918.5C 347.598,919.164 386.098,919.83 424.5,920.5C 366.832,920.667 309.166,920.5 251.5,920C 227.545,920.135 203.712,919.302 180,917.5C 179.333,918.167 178.667,918.833 178,919.5C 176.989,919.108 176.489,918.441 176.5,917.5C 175.188,918.46 173.854,918.294 172.5,917C 172.833,916.667 173.167,916.333 173.5,916C 178.419,915.198 183.252,915.365 188,916.5C 191.256,915.652 194.589,914.985 198,914.5C 226.328,914.279 254.994,914.279 284,914.5C 307.139,913.565 330.306,912.565 353.5,911.5C 377.548,912.394 401.715,912.727 426,912.5C 513.828,911.445 601.995,910.445 690.5,909.5C 747.253,910.764 804.086,910.764 861,909.5C 910.724,910.153 960.391,910.82 1010,911.5C 1013.26,911.609 1016.59,911.275 1020,910.5C 1058.49,911.237 1096.99,911.903 1135.5,912.5C 1140.08,912.486 1144.58,912.153 1149,911.5C 1172.61,912.186 1196.28,912.853 1220,913.5C 1226.18,912.833 1232.35,913.167 1238.5,914.5C 1253.4,913.054 1268.23,913.388 1283,915.5C 1285,914.167 1287,914.167 1289,915.5C 1290.78,914.76 1292.62,914.093 1294.5,913.5C 1301.36,914.149 1308.2,914.816 1315,915.5C 1322.31,914.957 1329.64,914.624 1337,914.5C 1337.67,915.167 1338.33,915.833 1339,916.5C 1342.07,915.383 1345.24,915.216 1348.5,916C 1349.52,917.049 1349.68,918.216 1349,919.5C 1348.67,918.833 1348.33,918.167 1348,917.5C 1346.22,920.003 1344.55,920.003 1343,917.5C 1340.6,920.054 1338.27,920.054 1336,917.5C 1308.06,919.487 1279.89,920.153 1251.5,919.5 Z"/></g>
<g><path style="opacity:1" fill="#dddddf" d="M 924.5,920.5 C 815.5,920.5 706.5,920.5 597.5,920.5C 549.335,919.667 501.002,919.167 452.5,919C 453.956,918.577 454.456,917.744 454,916.5C 452.951,917.517 451.784,917.684 450.5,917C 451.6,915.977 452.933,915.477 454.5,915.5C 461.036,916.08 467.536,916.413 474,916.5C 478.414,915.697 482.914,915.197 487.5,915C 516.172,914.725 544.838,914.225 573.5,913.5C 596.175,913.664 619.008,913.998 642,914.5C 672.958,913.826 703.958,913.159 735,912.5C 766.741,913.475 798.408,913.475 830,912.5C 837.667,913.167 845.333,913.833 853,914.5C 882.067,913.961 911.067,913.628 940,913.5C 980.46,913.833 1020.63,914.667 1060.5,916C 1061.17,916.333 1061.83,916.667 1062.5,917C 1060.06,920.082 1057.4,920.249 1054.5,917.5C 1053.3,917.846 1053.3,918.346 1054.5,919C 1011,919.167 967.665,919.667 924.5,920.5 Z"/></g>
<g><path style="opacity:0.931" fill="#5a5a5a" d="M 1522.5,907.5 C 1522.5,909.167 1522.5,910.833 1522.5,912.5C 1519.81,915.472 1516.65,918.138 1513,920.5C 1510.68,921.871 1508.18,922.538 1505.5,922.5C 1512.71,919.297 1518.37,914.297 1522.5,907.5 Z"/></g>
<g><path style="opacity:1" fill="#adaeaf" d="M 171.5,921.5 C 488.833,921.5 806.167,921.5 1123.5,921.5C 803,922.167 482.333,922.833 161.5,923.5C 162.689,924.429 164.022,924.762 165.5,924.5C 165.5,924.833 165.5,925.167 165.5,925.5C 163.833,925.5 162.167,925.5 160.5,925.5C 147.534,923.996 134.367,923.329 121,923.5C 104.83,923.777 88.6636,924.11 72.5,924.5C 65.3644,923.169 57.8644,922.503 50,922.5C 42.1356,922.503 34.6356,923.169 27.5,924.5C 26.0413,924.567 24.7079,924.234 23.5,923.5C 21.2646,923.795 19.2646,923.461 17.5,922.5C 68.664,921.501 119.997,921.168 171.5,921.5 Z"/></g>
<g><path style="opacity:1" fill="#6b6b6c" d="M 1522.5,907.5 C 1518.37,914.297 1512.71,919.297 1505.5,922.5C 1501.44,922.848 1497.44,923.514 1493.5,924.5C 1486.7,923.169 1479.53,922.503 1472,922.5C 1464.83,922.833 1457.67,923.167 1450.5,923.5C 1464.48,924.499 1478.48,924.833 1492.5,924.5C 1492.5,924.833 1492.5,925.167 1492.5,925.5C 1478.17,925.5 1463.83,925.5 1449.5,925.5C 1435.37,923.976 1421.03,923.31 1406.5,923.5C 992.835,924.483 579.168,924.817 165.5,924.5C 164.022,924.762 162.689,924.429 161.5,923.5C 482.333,922.833 803,922.167 1123.5,921.5C 1207.5,921.5 1291.5,921.5 1375.5,921.5C 1402.84,921.667 1430.17,921.5 1457.5,921C 1472.2,920.851 1486.86,920.184 1501.5,919C 1505.58,916.311 1509.75,913.811 1514,911.5C 1515.64,909.023 1517.48,906.69 1519.5,904.5C 1520.06,902.146 1520.73,899.813 1521.5,897.5C 1522.49,900.768 1522.82,904.102 1522.5,907.5 Z"/></g>
<g><path style="opacity:0.987" fill="#464646" d="M 72.5,924.5 C 57.5,924.5 42.5,924.5 27.5,924.5C 34.6356,923.169 42.1356,922.503 50,922.5C 57.8644,922.503 65.3644,923.169 72.5,924.5 Z"/></g>
<g><path style="opacity:0.966" fill="#4f4f50" d="M 1493.5,924.5 C 1493.17,924.5 1492.83,924.5 1492.5,924.5C 1478.48,924.833 1464.48,924.499 1450.5,923.5C 1457.67,923.167 1464.83,922.833 1472,922.5C 1479.53,922.503 1486.7,923.169 1493.5,924.5 Z"/></g>
<g><path style="opacity:0.649" fill="#c0c0c1" d="M 23.5,923.5 C 24.7079,924.234 26.0413,924.567 27.5,924.5C 42.5,924.5 57.5,924.5 72.5,924.5C 88.6636,924.11 104.83,923.777 121,923.5C 134.367,923.329 147.534,923.996 160.5,925.5C 114.833,925.5 69.1667,925.5 23.5,925.5C 23.5,924.833 23.5,924.167 23.5,923.5 Z"/></g>
<g><path style="opacity:0.654" fill="#b8b8b8" d="M 1449.5,925.5 C 1021.5,925.5 593.5,925.5 165.5,925.5C 165.5,925.167 165.5,924.833 165.5,924.5C 579.168,924.817 992.835,924.483 1406.5,923.5C 1421.03,923.31 1435.37,923.976 1449.5,925.5 Z"/></g>
</svg>
